<?xml version="1.0" encoding="UTF-8" standalone="no"?>
<!-- Created with Inkscape (http://www.inkscape.org/) -->

<svg
   width="84.760674mm"
   height="43.381451mm"
   viewBox="0 0 84.760674 43.38145"
   version="1.1"
   id="svg5"
   xml:space="preserve"
   xmlns:inkscape="http://www.inkscape.org/namespaces/inkscape"
   xmlns:sodipodi="http://sodipodi.sourceforge.net/DTD/sodipodi-0.dtd"
   xmlns="http://www.w3.org/2000/svg"
   xmlns:svg="http://www.w3.org/2000/svg"><sodipodi:namedview
     id="namedview7"
     pagecolor="#ffffff"
     bordercolor="#000000"
     borderopacity="0.25"
     inkscape:showpageshadow="2"
     inkscape:pageopacity="0.0"
     inkscape:pagecheckerboard="0"
     inkscape:deskcolor="#d1d1d1"
     inkscape:document-units="mm"
     showgrid="false" /><defs
     id="defs2" /><g
     id="g142"
     transform="matrix(0.03527778,0,0,-0.03527778,-24.219445,65.743914)"><path
       d="m 1816.99,1272.29 c 0,0 28.85,63.15 48.11,109.13 7.01,16.31 12.85,31.42 15.53,38.55 2.67,-7.13 8.61,-22.24 15.54,-38.55 19.26,-45.98 48.17,-109.13 48.17,-109.13 z m 465.44,-229.24 -355.9,719.04 h -91.78 l -355.86,-719.04 c -5,-10.42 0.41,-18.86 11.13,-18.86 h 210.37 c 12.32,0 17.79,4.86 21.42,11.8 12.86,25.64 20.39,48.06 34.24,78.03 h 249.22 v 0 c 13.85,-29.97 21.37,-52.39 34.26,-78.03 3.52,-6.94 9.02,-11.8 21.39,-11.8 h 210.43 c 10.61,0 16.05,8.44 11.08,18.86"
       style="fill:#19b5f1;fill-opacity:1;fill-rule:nonzero;stroke:none"
       id="path144" /><path
       d="m 1155.45,1218.64 c -93.72,0 -169.669,76.03 -169.669,169.76 0,93.7 75.949,169.69 169.669,169.69 72.58,0 134.32,-45.65 158.53,-109.75 0.94,-2.46 4.22,-7.39 11.92,-7.39 40.29,0 191.8,0 198.25,0 11.19,0 12.82,11 11.58,18.62 -33.41,179.62 -190.89,315.75 -380.28,315.75 -213.673,0 -386.934,-173.28 -386.934,-386.92 0,-213.69 173.261,-387.01 386.934,-387.01 191.35,0 350.06,138.85 381.29,321.22 1.3,5.45 -1.57,14.89 -11.25,14.89 -7.61,0 -155.82,0 -197.72,0 -9.1,0 -12.52,-5.54 -13.49,-8.32 -24.01,-64.52 -85.89,-110.54 -158.83,-110.54"
       style="fill:#19b5f1;fill-opacity:1;fill-rule:nonzero;stroke:none"
       id="path146" /><path
       d="m 2788.87,1313.83 -2.39,-1.35 -53.17,53.66 -42.59,-35.15 -2.22,2.91 c -10.74,13.81 -16.33,30.29 -16.33,47.68 0,43.03 35.04,78.07 78.02,78.07 43.06,0 78.07,-35.04 78.07,-78.07 0,-27.87 -15.12,-53.86 -39.39,-67.75 z m -72.19,-41.7 c 0,-5.55 -4.41,-9.99 -9.77,-9.99 h -200.8 c -5.5,0 -9.88,4.44 -9.88,9.99 v 1.21 l 38.86,44.54 h 142.79 l 38.8,-44.54 z m -57.96,-73.66 c -48.15,-52.09 -50.13,-52.23 -51.92,-52.33 h -0.12 -0.04 c -1.97,0 -3.64,0 -52.42,52.19 l -2.4,2.66 34.88,32.27 h 39.55 l 34.82,-32.27 z m -232.31,114.01 -2.31,1.35 c -24.28,13.89 -39.45,39.88 -39.45,67.75 0,43.03 35.04,78.07 78.1,78.07 43.01,0 78.05,-35.04 78.05,-78.07 0,-17.39 -5.68,-33.87 -16.39,-47.68 l -2.24,-2.91 -42.54,35.15 z m 130.31,238.99 c 45.27,89.26 46.97,89.26 49.73,89.26 2.77,0 4.41,0 49.68,-89.42 10.37,-17.75 16.16,-40.63 16.16,-64.46 0,-22.96 -5.51,-45.52 -15.61,-63.45 -45.6,-76.03 -47.34,-76.41 -49.3,-76.73 l -0.37,-0.08 h -0.76 c -2.7,0.4 -4.42,0.78 -49.96,76.71 -10.1,18.03 -15.7,40.59 -15.7,63.55 0,23.83 5.8,46.71 16.13,64.62 z m 48.69,223 c -213.73,0 -386.96,-173.24 -386.96,-386.99 0,-213.81 173.23,-386.98 386.96,-386.98 42.75,0 83.81,7.09 122.21,19.86 0,0 138.79,-57.11 148.51,-61.821 9.71,-4.551 15.84,1.441 15.84,6.949 0,5.473 1.72,163.972 1.72,163.972 61.33,68.52 98.69,158.89 98.69,258.02 0,213.75 -173.28,386.99 -386.97,386.99"
       style="fill:#19b5f1;fill-opacity:1;fill-rule:nonzero;stroke:none"
       id="path148" /><path
       d="m 934.824,870.691 c 13.762,0 23.711,-4.64 32.973,-12.679 1.226,-1.09 1.226,-2.723 0.137,-3.821 l -5.996,-6.132 c -0.954,-1.219 -2.176,-1.219 -3.403,0 -6.406,5.589 -15.129,9.132 -23.574,9.132 -19.488,0 -34.203,-16.351 -34.203,-35.421 0,-19.079 14.851,-35.29 34.34,-35.29 9.945,0 16.894,3.942 23.437,8.989 1.227,0.953 2.449,0.812 3.266,0.14 l 6.269,-6.14 c 1.09,-0.949 0.817,-2.719 -0.136,-3.68 -9.266,-8.988 -20.981,-13.219 -33.11,-13.219 -27.25,0 -49.187,21.668 -49.187,48.93 0,27.238 21.937,49.191 49.187,49.191"
       style="fill:#231f20;fill-opacity:1;fill-rule:nonzero;stroke:none"
       id="path150" /><path
       d="m 1034.46,786.199 c 19.49,0 35.43,15.801 35.43,35.301 0,19.34 -15.94,35.551 -35.43,35.551 -19.35,0 -35.288,-16.211 -35.288,-35.551 0,-19.5 15.938,-35.301 35.288,-35.301 z m 0,84.492 c 27.25,0 49.06,-21.953 49.06,-49.191 0,-27.262 -21.81,-48.93 -49.06,-48.93 -27.25,0 -48.913,21.668 -48.913,48.93 0,27.238 21.663,49.191 48.913,49.191"
       style="fill:#231f20;fill-opacity:1;fill-rule:nonzero;stroke:none"
       id="path152" /><path
       d="m 1156.87,806.371 -16.76,37.328 h -0.69 l -16.62,-37.328 z m -61.73,-28.891 41.83,91.7 c 0.41,0.82 1.64,1.511 2.32,1.511 h 1.36 c 0.68,0 1.91,-0.691 2.32,-1.511 l 41.56,-91.7 c 0.82,-1.769 -0.28,-3.539 -2.32,-3.539 h -8.58 c -1.64,0 -2.59,0.821 -3.14,2.039 l -8.44,18.668 h -44.56 c -2.73,-6.269 -5.59,-12.398 -8.32,-18.668 -0.41,-0.949 -1.49,-2.039 -3.13,-2.039 h -8.58 c -2.04,0 -3.14,1.77 -2.32,3.539"
       style="fill:#231f20;fill-opacity:1;fill-rule:nonzero;stroke:none"
       id="path154" /><path
       d="m 1209.09,866.73 c 0,1.372 1.09,2.59 2.58,2.59 h 9 c 1.36,0 2.59,-1.218 2.59,-2.59 v -80.121 h 36.93 c 1.49,0 2.58,-1.23 2.58,-2.578 v -7.5 c 0,-1.359 -1.09,-2.59 -2.58,-2.59 h -48.52 c -1.49,0 -2.58,1.231 -2.58,2.59 v 90.199"
       style="fill:#231f20;fill-opacity:1;fill-rule:nonzero;stroke:none"
       id="path156" /><path
       d="m 1288.01,866.73 c 0,1.372 1.23,2.59 2.59,2.59 h 8.99 c 1.37,0 2.59,-1.218 2.59,-2.59 v -90.199 c 0,-1.359 -1.22,-2.59 -2.59,-2.59 h -8.99 c -1.36,0 -2.59,1.231 -2.59,2.59 v 90.199"
       style="fill:#231f20;fill-opacity:1;fill-rule:nonzero;stroke:none"
       id="path158" /><path
       d="m 1349.89,856.52 h -22.21 c -1.5,0 -2.59,1.218 -2.59,2.582 v 7.628 c 0,1.372 1.09,2.59 2.59,2.59 h 58.59 c 1.5,0 2.59,-1.218 2.59,-2.59 v -7.628 c 0,-1.364 -1.09,-2.582 -2.59,-2.582 h -22.21 v -79.989 c 0,-1.359 -1.23,-2.59 -2.59,-2.59 h -8.99 c -1.37,0 -2.59,1.231 -2.59,2.59 v 79.989"
       style="fill:#231f20;fill-opacity:1;fill-rule:nonzero;stroke:none"
       id="path160" /><path
       d="m 1414.5,866.73 c 0,1.372 1.23,2.59 2.59,2.59 h 8.99 c 1.37,0 2.59,-1.218 2.59,-2.59 v -90.199 c 0,-1.359 -1.22,-2.59 -2.59,-2.59 h -8.99 c -1.36,0 -2.59,1.231 -2.59,2.59 v 90.199"
       style="fill:#231f20;fill-opacity:1;fill-rule:nonzero;stroke:none"
       id="path162" /><path
       d="m 1507.99,786.199 c 19.49,0 35.43,15.801 35.43,35.301 0,19.34 -15.94,35.551 -35.43,35.551 -19.35,0 -35.29,-16.211 -35.29,-35.551 0,-19.5 15.94,-35.301 35.29,-35.301 z m 0,84.492 c 27.25,0 49.06,-21.953 49.06,-49.191 0,-27.262 -21.81,-48.93 -49.06,-48.93 -27.25,0 -48.91,21.668 -48.91,48.93 0,27.238 21.66,49.191 48.91,49.191"
       style="fill:#231f20;fill-opacity:1;fill-rule:nonzero;stroke:none"
       id="path164" /><path
       d="m 1587.48,868.23 c 0,1.36 1.22,2.461 2.58,2.461 h 3.41 l 59.14,-68.41 h 0.13 v 64.449 c 0,1.372 1.09,2.59 2.59,2.59 h 8.72 c 1.37,0 2.59,-1.218 2.59,-2.59 v -91.699 c 0,-1.371 -1.22,-2.461 -2.59,-2.461 h -3.54 l -59.14,70.309 h -0.13 v -66.348 c 0,-1.359 -1.09,-2.59 -2.59,-2.59 h -8.59 c -1.36,0 -2.58,1.231 -2.58,2.59 v 91.699"
       style="fill:#231f20;fill-opacity:1;fill-rule:nonzero;stroke:none"
       id="path166" /><path
       d="m 1793.82,806.371 -16.75,37.328 h -0.69 l -16.62,-37.328 z m -61.72,-28.891 41.83,91.7 c 0.41,0.82 1.64,1.511 2.32,1.511 h 1.36 c 0.68,0 1.91,-0.691 2.32,-1.511 l 41.55,-91.7 c 0.82,-1.769 -0.27,-3.539 -2.31,-3.539 h -8.58 c -1.64,0 -2.59,0.821 -3.14,2.039 l -8.45,18.668 h -44.56 c -2.72,-6.269 -5.58,-12.398 -8.31,-18.668 -0.41,-0.949 -1.5,-2.039 -3.13,-2.039 h -8.59 c -2.04,0 -3.13,1.77 -2.31,3.539"
       style="fill:#231f20;fill-opacity:1;fill-rule:nonzero;stroke:none"
       id="path168" /><path
       d="m 1819.34,865.77 c -0.82,1.781 0.26,3.55 2.31,3.55 h 9.67 c 1.1,0 2.05,-0.82 2.32,-1.5 l 29.98,-67.449 h 0.82 l 29.97,67.449 c 0.28,0.68 1.1,1.5 2.32,1.5 h 9.68 c 2.04,0 3.13,-1.769 2.31,-3.55 l -41.83,-91.7 c -0.41,-0.82 -1.23,-1.5 -2.32,-1.5 h -1.36 c -0.95,0 -1.91,0.68 -2.32,1.5 l -41.55,91.7"
       style="fill:#231f20;fill-opacity:1;fill-rule:nonzero;stroke:none"
       id="path170" /><path
       d="m 1933.42,866.73 c 0,1.372 1.09,2.59 2.6,2.59 h 54.5 c 1.49,0 2.59,-1.218 2.59,-2.59 v -7.628 c 0,-1.364 -1.1,-2.582 -2.59,-2.582 h -43.06 v -27.809 h 36.38 c 1.37,0 2.59,-1.223 2.59,-2.582 V 818.5 c 0,-1.512 -1.22,-2.59 -2.59,-2.59 h -36.38 v -29.301 h 43.06 c 1.49,0 2.59,-1.23 2.59,-2.578 v -7.5 c 0,-1.359 -1.1,-2.59 -2.59,-2.59 h -54.5 c -1.51,0 -2.6,1.231 -2.6,2.59 v 90.199"
       style="fill:#231f20;fill-opacity:1;fill-rule:nonzero;stroke:none"
       id="path172" /><path
       d="m 2024.61,868.23 c 0,1.36 1.23,2.461 2.6,2.461 h 3.4 l 59.14,-68.41 h 0.13 v 64.449 c 0,1.372 1.1,2.59 2.59,2.59 h 8.72 c 1.37,0 2.59,-1.218 2.59,-2.59 v -91.699 c 0,-1.371 -1.22,-2.461 -2.59,-2.461 h -3.54 l -59.13,70.309 h -0.14 v -66.348 c 0,-1.359 -1.09,-2.59 -2.59,-2.59 h -8.58 c -1.37,0 -2.6,1.231 -2.6,2.59 v 91.699"
       style="fill:#231f20;fill-opacity:1;fill-rule:nonzero;stroke:none"
       id="path174" /><path
       d="m 2138.42,866.73 c 0,1.372 1.23,2.59 2.6,2.59 h 8.98 c 1.37,0 2.6,-1.218 2.6,-2.59 v -90.199 c 0,-1.359 -1.23,-2.59 -2.6,-2.59 h -8.98 c -1.37,0 -2.6,1.231 -2.6,2.59 v 90.199"
       style="fill:#231f20;fill-opacity:1;fill-rule:nonzero;stroke:none"
       id="path176" /><path
       d="m 2227.15,822.988 c 8.86,0 16.62,7.5 16.62,16.891 0,8.859 -7.76,16.23 -16.62,16.23 h -24.25 v -33.121 z m -38.57,43.742 c 0,1.372 1.1,2.59 2.6,2.59 h 37.06 c 16.35,0 29.71,-12.941 29.71,-29.16 0,-12.531 -8.32,-22.89 -20.17,-27.66 l 18.67,-34.609 c 0.95,-1.77 0,-3.95 -2.32,-3.95 h -10.62 c -1.1,0 -1.92,0.68 -2.19,1.231 l -18.12,36.098 h -20.57 v -34.739 c 0,-1.359 -1.23,-2.59 -2.59,-2.59 h -8.86 c -1.5,0 -2.6,1.231 -2.6,2.59 v 90.199"
       style="fill:#231f20;fill-opacity:1;fill-rule:nonzero;stroke:none"
       id="path178" /><path
       d="m 2373,786.199 c 19.48,0 35.43,15.801 35.43,35.301 0,19.34 -15.95,35.551 -35.43,35.551 -19.35,0 -35.29,-16.211 -35.29,-35.551 0,-19.5 15.94,-35.301 35.29,-35.301 z m 0,84.492 c 27.25,0 49.05,-21.953 49.05,-49.191 0,-19.359 -11.31,-36.121 -27.79,-44.289 l 16.48,-26.16 c 1.23,-1.91 0,-4.09 -2.18,-4.09 h -10.63 c -0.54,0 -1.63,0.41 -2.18,1.359 l -14.71,24.801 c -2.59,-0.41 -5.59,-0.551 -8.04,-0.551 -27.26,0 -48.92,21.668 -48.92,48.93 0,27.238 21.66,49.191 48.92,49.191"
       style="fill:#231f20;fill-opacity:1;fill-rule:nonzero;stroke:none"
       id="path180" /><path
       d="m 2445.94,866.73 c 0,1.372 1.22,2.59 2.59,2.59 h 9.13 c 1.49,0 2.58,-1.218 2.58,-2.59 v -56.281 c 0,-13.617 8.72,-24.25 22.62,-24.25 14.03,0 22.89,10.492 22.89,23.992 v 56.539 c 0,1.372 1.1,2.59 2.59,2.59 h 9.13 c 1.37,0 2.59,-1.218 2.59,-2.59 V 809.5 c 0,-20.711 -15.67,-36.93 -37.2,-36.93 -21.39,0 -36.92,16.219 -36.92,36.93 v 57.23"
       style="fill:#231f20;fill-opacity:1;fill-rule:nonzero;stroke:none"
       id="path182" /><path
       d="m 2567.66,880.082 -1.92,3.816 c -0.54,1.09 0.14,2.184 0.82,2.59 l 21.4,12.403 c 0.81,0.55 2.86,0.82 3.53,-0.411 l 3.14,-6 c 0.82,-1.351 0.27,-2.718 -0.81,-3.269 l -22.89,-9.801 c -1.78,-0.82 -2.74,-0.551 -3.27,0.672 z m -16.91,-13.352 c 0,1.372 1.1,2.59 2.6,2.59 h 54.5 c 1.5,0 2.59,-1.218 2.59,-2.59 v -7.628 c 0,-1.364 -1.09,-2.582 -2.59,-2.582 h -43.06 v -27.809 h 36.38 c 1.37,0 2.59,-1.223 2.59,-2.582 V 818.5 c 0,-1.512 -1.22,-2.59 -2.59,-2.59 h -36.38 v -29.301 h 43.06 c 1.5,0 2.59,-1.23 2.59,-2.578 v -7.5 c 0,-1.359 -1.09,-2.59 -2.59,-2.59 h -54.5 c -1.5,0 -2.6,1.231 -2.6,2.59 v 90.199"
       style="fill:#231f20;fill-opacity:1;fill-rule:nonzero;stroke:none"
       id="path184" /><path
       d="m 2672.87,827.891 c 8.72,0 14.04,6.41 14.04,14.578 0,8.32 -5.32,14.051 -14.04,14.051 h -18.39 v -28.629 z m 2.19,-41.411 c 8.31,0 14.72,6.391 14.72,14.852 0,8.309 -7.91,14.309 -16.77,14.309 h -18.66 V 786.48 Z m -34.48,80.25 c 0,1.372 1.09,2.59 2.59,2.59 h 30.52 c 16.49,0 28.34,-10.898 28.34,-25.211 0,-10.488 -7.76,-17.98 -14.17,-21.668 7.23,-2.992 17.03,-9.66 17.03,-22.203 0,-15.269 -12.53,-26.297 -29.69,-26.297 h -32.03 c -1.5,0 -2.59,1.231 -2.59,2.59 v 90.199"
       style="fill:#231f20;fill-opacity:1;fill-rule:nonzero;stroke:none"
       id="path186" /><path
       d="m 2734.9,866.73 c 0,1.372 1.1,2.59 2.6,2.59 h 54.5 c 1.5,0 2.59,-1.218 2.59,-2.59 v -7.628 c 0,-1.364 -1.09,-2.582 -2.59,-2.582 h -43.05 v -27.809 h 36.37 c 1.37,0 2.59,-1.223 2.59,-2.582 V 818.5 c 0,-1.512 -1.22,-2.59 -2.59,-2.59 h -36.37 V 786.609 H 2792 c 1.5,0 2.59,-1.23 2.59,-2.578 v -7.5 c 0,-1.359 -1.09,-2.59 -2.59,-2.59 h -54.5 c -1.5,0 -2.6,1.231 -2.6,2.59 v 90.199"
       style="fill:#231f20;fill-opacity:1;fill-rule:nonzero;stroke:none"
       id="path188" /><path
       d="m 2867.93,870.691 c 13.76,0 23.71,-4.64 32.98,-12.679 1.22,-1.09 1.22,-2.723 0.13,-3.821 l -5.99,-6.132 c -0.96,-1.219 -2.19,-1.219 -3.41,0 -6.41,5.589 -15.13,9.132 -23.57,9.132 -19.49,0 -34.2,-16.351 -34.2,-35.421 0,-19.079 14.85,-35.29 34.33,-35.29 9.94,0 16.9,3.942 23.44,8.989 1.22,0.953 2.45,0.812 3.27,0.14 l 6.26,-6.14 c 1.1,-0.949 0.82,-2.719 -0.13,-3.68 -9.26,-8.988 -20.98,-13.219 -33.11,-13.219 -27.26,0 -49.19,21.668 -49.19,48.93 0,27.238 21.93,49.191 49.19,49.191"
       style="fill:#231f20;fill-opacity:1;fill-rule:nonzero;stroke:none"
       id="path190" /></g></svg>
