<?xml version="1.0" encoding="UTF-8" standalone="no"?>
<!-- Created with Inkscape (http://www.inkscape.org/) -->
<svg
   xmlns:dc="http://purl.org/dc/elements/1.1/"
   xmlns:cc="http://creativecommons.org/ns#"
   xmlns:rdf="http://www.w3.org/1999/02/22-rdf-syntax-ns#"
   xmlns:svg="http://www.w3.org/2000/svg"
   xmlns="http://www.w3.org/2000/svg"
   xmlns:sodipodi="http://sodipodi.sourceforge.net/DTD/sodipodi-0.dtd"
   xmlns:inkscape="http://www.inkscape.org/namespaces/inkscape"
   id="svg2403"
   sodipodi:version="0.32"
   inkscape:version="0.46"
   width="240"
   height="590"
   xml:space="preserve"
   sodipodi:docname="Parti liberal quebec.svg"
   version="1.0"
   inkscape:output_extension="org.inkscape.output.svg.inkscape"><metadata
     id="metadata2408"><rdf:RDF><cc:Work
         rdf:about=""><dc:format>image/svg+xml</dc:format><dc:type
           rdf:resource="http://purl.org/dc/dcmitype/StillImage" /></cc:Work></rdf:RDF></metadata><defs
     id="defs2406"><inkscape:perspective
       sodipodi:type="inkscape:persp3d"
       inkscape:vp_x="0 : 526.18109 : 1"
       inkscape:vp_y="0 : 1000 : 0"
       inkscape:vp_z="744.09448 : 526.18109 : 1"
       inkscape:persp3d-origin="372.04724 : 350.78739 : 1"
       id="perspective2410" /><clipPath
       clipPathUnits="userSpaceOnUse"
       id="clipPath2418"><path
         d="M 0,0 L 612,0 L 612,792 L 0,792 L 0,0 z"
         id="path2420" /></clipPath><clipPath
       clipPathUnits="userSpaceOnUse"
       id="clipPath2426"><path
         d="M 0,-414 L 0,414 L 630,414 L 630,-414 L 0,-414 z"
         id="path2428" /></clipPath><clipPath
       clipPathUnits="userSpaceOnUse"
       id="clipPath2434"><path
         d="M 0,0 L 0,875.51996 L 655.44,875.51996 L 655.44,0 L 0,0 z"
         id="path2436" /></clipPath><clipPath
       clipPathUnits="userSpaceOnUse"
       id="clipPath2446"><path
         d="M 33.5,619.5 L 356.83331,619.5 L 356.83331,383.07138 L 33.5,383.07138 L 33.5,619.5 z"
         id="path2448" /></clipPath><clipPath
       clipPathUnits="userSpaceOnUse"
       id="clipPath2462"><path
         d="M -5.12155,759.61908 L 613.5,759.61908 L 613.5,578.50092 L -5.12155,578.50092 L -5.12155,759.61908 z"
         id="path2464" /></clipPath><clipPath
       clipPathUnits="userSpaceOnUse"
       id="clipPath2622"><path
         d="M 477.5,-328.07693 L 477.5,-190 L 603.61536,-190 L 603.61536,-328.07693 L 477.5,-328.07693 z"
         id="path2624" /></clipPath></defs><sodipodi:namedview
     inkscape:window-height="480"
     inkscape:window-width="640"
     inkscape:pageshadow="2"
     inkscape:pageopacity="0.0"
     guidetolerance="10.0"
     gridtolerance="10.0"
     objecttolerance="10.0"
     borderopacity="1.0"
     bordercolor="#666666"
     pagecolor="#ffffff"
     id="base"
     showgrid="false"
     inkscape:zoom="0.75252525"
     inkscape:cx="382.5"
     inkscape:cy="335.53691"
     inkscape:current-layer="g2412" /><g
     id="g2412"
     inkscape:groupmode="layer"
     inkscape:label="agriculture_plq"
     transform="matrix(1.25,0,0,-1.25,-271.76503,835.68213)"><g
       id="g2618"
       transform="matrix(4.5194045,0,0,-4.5194045,-2126.2945,-740.87906)"><g
         id="g2620"
         clip-path="url(#clipPath2622)"><g
           id="g2626"
           transform="matrix(0.23985,0,0,-0.23985,510.22946,-199.78481)"><path
             d="M 46.92969,206.02501 L 46.92969,188.52104 L 52.29298,188.52104 C 56.05859,188.52104 57.22076,189.33203 57.22076,193.338 L 57.22076,200.55002 C 57.22076,204.08003 56.81837,206.02501 52.36719,206.02501 L 46.92969,206.02501 z M 54.75587,213.25702 C 63.66608,213.25702 65.6973,207.05803 65.6973,202.22003 L 65.6973,193.12103 C 65.6973,184.74802 62.4493,181.28903 53.30858,181.28903 L 46.92969,181.28903 C 46.92969,181.28903 46.92969,162.49802 46.92969,162.07204 C 46.52539,162.07204 38.20709,162.07204 37.80078,162.07204 C 37.80078,162.50203 37.80078,212.82603 37.80078,213.25702 C 38.22269,213.25702 54.75587,213.25702 54.75587,213.25702"
             style="fill:#be002f;fill-opacity:1;fill-rule:nonzero;stroke:none"
             id="path2628" /><path
             d="M 108.30499,195.62703 C 110.01598,198.23804 112.83998,199.67903 116.43999,199.67903 C 116.43999,199.28703 116.43999,192.55403 116.43999,192.00702 C 115.66699,192.00702 114.29199,191.937 113.27599,191.86104 C 107.93199,191.48004 107.89699,186.71504 107.89699,183.83203 C 107.89699,183.83203 107.89699,162.49802 107.89699,162.07204 C 107.49498,162.07204 100.11998,162.07204 99.71678,162.07204 C 99.71678,162.49802 99.71678,199.33203 99.71678,199.75903 C 100.11998,199.75903 107.55899,199.75903 107.96899,199.75903 C 107.95898,199.35504 107.88499,194.86903 107.88499,194.86903 L 108.30499,195.62703"
             style="fill:#be002f;fill-opacity:1;fill-rule:nonzero;stroke:none"
             id="path2630" /><path
             d="M 151.58798,133.46301 C 153.29898,136.07404 156.12698,137.51901 159.72299,137.51901 C 159.72299,137.12503 159.72299,130.39401 159.72299,129.84305 C 158.95201,129.84305 157.57498,129.77301 156.561,129.70303 C 151.21498,129.32007 151.17998,124.55402 151.17998,121.67203 C 151.17998,121.67203 151.17998,100.33801 151.17998,99.91003 C 150.77797,99.91003 143.40297,99.91003 142.99997,99.91003 C 142.99997,100.34106 142.99997,137.16602 142.99997,137.59506 C 143.40297,137.59506 150.84198,137.59506 151.24997,137.59506 C 151.24298,137.19302 151.16699,132.70703 151.16699,132.70703 L 151.58798,133.46301"
             style="fill:#be002f;fill-opacity:1;fill-rule:nonzero;stroke:none"
             id="path2632" /><path
             d="M 133.89499,213.265 C 133.89499,212.84302 133.89499,199.75903 133.89499,199.75903 C 133.89499,199.75903 138.67998,199.75903 139.08098,199.75903 C 139.08098,199.37103 139.08098,192.39203 139.08098,192.00702 C 138.67998,192.00702 133.82301,192.00702 133.82301,192.00702 L 133.82301,172.93103 C 133.82301,170.66603 134.14099,169.25203 137.98099,169.25203 C 137.98099,169.25203 139.08098,169.23804 139.29898,169.25203 C 139.29898,168.84103 139.29898,162.41603 139.29898,162.10101 C 138.68599,161.94905 137.19598,161.709 134.52797,161.709 C 127.35599,161.709 125.71498,164.37703 125.71498,169.30203 L 125.71498,192.00702 C 125.71498,192.00702 121.36598,192.00702 120.96701,192.00702 C 120.96701,192.39203 120.96701,199.37103 120.96701,199.75903 C 121.36598,199.75903 125.64297,199.75903 125.64297,199.75903 C 125.64297,199.75903 125.64297,212.84302 125.64297,213.265 C 126.04501,213.265 133.49498,213.265 133.89499,213.265"
             style="fill:#be002f;fill-opacity:1;fill-rule:nonzero;stroke:none"
             id="path2634" /><path
             d="M 154.16998,213.25702 C 154.16998,212.85303 154.16998,205.25703 154.16998,204.85704 C 153.76599,204.85704 146.32098,204.85704 145.91699,204.85704 C 145.91699,205.25703 145.91699,212.85303 145.91699,213.25702 C 146.32098,213.25702 153.76599,213.25702 154.16998,213.25702"
             style="fill:#be002f;fill-opacity:1;fill-rule:nonzero;stroke:none"
             id="path2636" /><path
             d="M 154.16998,199.75903 C 154.16998,199.33203 154.16998,162.49802 154.16998,162.07204 C 153.76799,162.07204 146.24698,162.07204 145.84198,162.07204 C 145.84198,162.49802 145.84198,199.33203 145.84198,199.75903 C 146.24698,199.75903 153.76799,199.75903 154.16998,199.75903"
             style="fill:#be002f;fill-opacity:1;fill-rule:nonzero;stroke:none"
             id="path2638" /><path
             d="M 77.97469,151.10103 C 77.97469,150.69905 77.97469,143.10101 77.97469,142.70305 C 77.57039,142.70305 70.12498,142.70305 69.72078,142.70305 C 69.72078,143.10101 69.72078,150.69905 69.72078,151.10103 C 70.12498,151.10103 77.57039,151.10103 77.97469,151.10103"
             style="fill:#be002f;fill-opacity:1;fill-rule:nonzero;stroke:none"
             id="path2640" /><path
             d="M 77.97469,137.60306 C 77.97469,137.17703 77.97469,100.34302 77.97469,99.91602 C 77.57228,99.91602 70.05078,99.91602 69.64648,99.91602 C 69.64648,100.34302 69.64648,137.17703 69.64648,137.60306 C 70.05078,137.60306 77.57228,137.60306 77.97469,137.60306"
             style="fill:#be002f;fill-opacity:1;fill-rule:nonzero;stroke:none"
             id="path2642" /><path
             d="M 46.95508,151.10103 L 46.95508,108.27106 L 64.80859,108.27106 L 64.80859,99.94302 L 37.79889,99.94302 L 37.79889,151.10103 L 46.95508,151.10103"
             style="fill:#be002f;fill-opacity:1;fill-rule:nonzero;stroke:none"
             id="path2644" /><path
             d="M 123.29298,88.98602 L 115.08398,80.40201 L 108.39297,80.33002 L 112.54501,88.98602 L 123.29298,88.98602"
             style="fill:#3c72b7;fill-opacity:1;fill-rule:nonzero;stroke:none"
             id="path2646" /><path
             d="M 109.18199,65.19101 C 109.18199,67.99603 110.33598,69.13104 112.61201,69.13104 C 115.82098,69.13104 115.82098,66.29303 115.82098,65.19101 L 115.82098,60.28705 L 109.18199,60.28705 L 109.18199,65.19101 z M 124.00198,54.59106 C 124.00198,55.00705 124.00198,65.11502 124.00198,65.11502 C 124.00198,67.26901 123.57098,70.27902 121.51399,72.40802 C 119.39699,74.45703 116.15298,75.63403 112.61201,75.63403 C 109.67599,75.63403 106.77602,74.82803 104.85199,73.48401 C 102.17398,71.61502 100.92998,68.81802 100.92998,64.67902 L 100.92998,48.82404 C 100.92998,40.91605 104.62698,37.06802 112.53799,37.06802 C 117.63298,37.06802 123.85599,38.77902 123.85599,46.92706 C 123.85599,46.92706 123.85599,49.32803 123.85599,49.70102 C 123.45598,49.70102 116.21899,49.70102 115.81898,49.70102 C 115.81699,46.06003 115.73299,45.75006 115.04498,44.83401 C 114.45599,44.07205 113.563,43.65201 112.53799,43.65201 C 109.11198,43.65201 109.11198,46.67505 109.11198,48.24203 L 109.11198,54.59106 C 109.11198,54.59106 123.58099,54.59106 124.00198,54.59106"
             style="fill:#3c72b7;fill-opacity:1;fill-rule:nonzero;stroke:none"
             id="path2648" /><path
             d="M 136.58298,151.14502 L 128.37398,142.56105 L 121.67999,142.48903 L 125.83398,151.14502 L 136.58298,151.14502"
             style="fill:#be002f;fill-opacity:1;fill-rule:nonzero;stroke:none"
             id="path2650" /><path
             d="M 122.47098,127.25906 C 122.47098,130.06403 123.62698,131.19904 125.90099,131.19904 C 129.11198,131.19904 129.11198,128.36102 129.11198,127.25906 L 129.11198,122.35501 L 122.47098,122.35501 L 122.47098,127.25906 z M 137.29298,116.66003 C 137.29298,117.07602 137.29298,127.18301 137.29298,127.18301 C 137.29298,129.33801 136.86,132.34702 134.80299,134.47601 C 132.68599,136.52504 129.442,137.70303 125.90099,137.70303 C 122.96498,137.70303 120.06499,136.89603 118.13899,135.55203 C 115.46098,133.68301 114.21701,130.88605 114.21701,126.74802 L 114.21701,110.89203 C 114.21701,102.98401 117.91499,99.13602 125.82701,99.13602 C 130.92198,99.13602 137.14699,100.84702 137.14699,108.99606 C 137.14699,108.99606 137.14699,111.39603 137.14699,111.76904 C 136.74501,111.76904 129.50798,111.76904 129.10999,111.76904 C 129.10599,108.12903 129.02199,107.81802 128.33398,106.90201 C 127.74501,106.14001 126.85199,105.72006 125.82701,105.72006 C 122.399,105.72006 122.399,108.74402 122.399,110.31006 L 122.399,116.66003 C 122.399,116.66003 136.86998,116.66003 137.29298,116.66003"
             style="fill:#be002f;fill-opacity:1;fill-rule:nonzero;stroke:none"
             id="path2652" /><path
             d="M 166.942,65.19101 C 166.942,67.99603 168.09599,69.13104 170.36998,69.13104 C 173.58298,69.13104 173.58298,66.29303 173.58298,65.19101 L 173.58298,60.28705 L 166.942,60.28705 L 166.942,65.19101 z M 181.76199,54.59106 C 181.76199,55.00705 181.76199,65.11502 181.76199,65.11502 C 181.76199,67.26901 181.32898,70.27902 179.272,72.40802 C 177.15698,74.45703 173.91298,75.63403 170.36998,75.63403 C 167.43399,75.63403 164.53601,74.82803 162.60999,73.48401 C 159.93201,71.61502 158.688,68.81802 158.688,64.67902 L 158.688,48.82404 C 158.688,40.91605 162.38899,37.06802 170.29698,37.06802 C 175.39499,37.06802 181.61598,38.77902 181.61598,46.92706 C 181.61598,46.92706 181.61598,49.32803 181.61598,49.70102 C 181.21298,49.70102 173.97699,49.70102 173.57898,49.70102 C 173.57698,46.06003 173.49298,45.75006 172.80298,44.83401 C 172.21498,44.07205 171.32498,43.65201 170.29698,43.65201 C 166.86998,43.65201 166.86998,46.67505 166.86998,48.24203 L 166.86998,54.59106 C 166.86998,54.59106 181.34,54.59106 181.76199,54.59106"
             style="fill:#3c72b7;fill-opacity:1;fill-rule:nonzero;stroke:none"
             id="path2654" /><path
             d="M 200.71698,151.10103 C 200.71698,150.67502 200.71698,100.37106 200.71698,99.94302 C 200.315,99.94302 192.79199,99.94302 192.38899,99.94302 C 192.38899,100.37106 192.38899,150.67502 192.38899,151.10103 C 192.79199,151.10103 200.315,151.10103 200.71698,151.10103"
             style="fill:#be002f;fill-opacity:1;fill-rule:nonzero;stroke:none"
             id="path2656" /><path
             d="M 56.7227,51.81403 C 56.7227,47.37103 56.7227,43.85901 51.8165,43.85901 C 46.98639,43.85901 46.98639,47.23203 46.98639,50.20703 L 46.98639,77.07404 C 46.98639,79.36902 46.98639,83.20502 51.96489,83.20502 C 56.7227,83.20502 56.7227,79.66406 56.7227,77.07404 L 56.7227,51.81403 z M 64.4395,41.91803 L 64.51759,42.06403 C 65.7227,44.25201 65.88289,45.30203 65.88289,48.30606 L 65.88289,77.29703 C 65.88289,82.78104 64.49609,85.74002 60.93359,87.84305 C 58.57819,89.29303 55.64647,90.00201 51.96489,90.00201 C 49.39258,90.00201 45.68561,89.61105 42.629,87.76703 C 38.64261,85.33902 37.82617,82.00204 37.82617,77.73203 L 37.82617,47.65002 C 37.82617,40.58902 42.6387,36.69702 51.37897,36.69702 L 54.42389,36.91602 L 57.5997,37.67001 C 57.5997,37.67001 63.76369,31.39005 64.0528,31.09302 C 64.34178,31.37503 69.3868,36.28104 69.67387,36.55804 C 69.38869,36.84903 64.4395,41.91803 64.4395,41.91803"
             style="fill:#3c72b7;fill-opacity:1;fill-rule:nonzero;stroke:none"
             id="path2658" /><path
             d="M 95.41798,71.20502 C 95.41798,71.20502 95.41798,38.22202 95.41798,37.79501 C 95.01569,37.79501 87.4942,37.79501 87.08989,37.79501 C 87.08989,38.16803 87.08989,41.02701 87.08989,41.02701 L 86.3692,40.43704 C 84.56258,38.96503 82.31837,37.13602 78.83989,37.13602 C 77.47078,37.13602 72.93559,37.53702 72.04501,42.72403 C 71.8282,43.87701 71.8282,44.66605 71.8282,46.77502 L 71.8282,71.20502 L 80.08209,71.20502 L 80.08209,48.01501 C 80.08209,46.15604 80.08209,43.34503 83.51569,43.34503 C 87.08989,43.34503 87.08989,46.58902 87.08989,48.52701 L 87.08989,71.20502 L 95.41798,71.20502"
             style="fill:#3c72b7;fill-opacity:1;fill-rule:nonzero;stroke:none"
             id="path2660" /><path
             d="M 95.41798,88.93701 C 95.41798,88.93701 95.41798,75.84305 95.41798,75.68704 C 95.2403,75.68704 91.92189,75.68704 91.74419,75.68704 C 91.74419,75.82407 91.74419,76.87103 91.74419,76.87103 L 91.42578,76.65402 C 90.62901,76.11502 89.63869,75.44504 88.10548,75.44504 C 87.50201,75.44504 85.50198,75.59106 85.10748,77.49002 C 85.01369,77.91403 85.01369,78.20303 85.01369,78.97601 L 85.01369,88.93701 L 88.65439,88.93701 L 88.65439,79.43103 C 88.65439,78.75006 88.65439,77.72003 90.16798,77.72003 C 91.74419,77.72003 91.74419,78.90802 91.74419,79.61902 L 91.74419,88.93701 L 95.41798,88.93701"
             style="fill:#3c72b7;fill-opacity:1;fill-rule:nonzero;stroke:none"
             id="path2662" /><path
             d="M 210.50801,61.01102 C 210.50801,61.40405 210.50801,65.25006 210.50801,65.25006 C 210.50801,68.89801 209.64099,71.11102 207.522,72.89206 C 205.50197,74.50705 202.25197,75.47003 198.82498,75.47003 C 196.34,75.47003 191.76199,74.94101 188.99101,71.39001 C 187.61998,69.70703 186.92198,67.31802 186.92198,64.29501 L 186.92198,47.72403 C 186.92198,44.81201 187.31099,41.80603 190.12599,39.57004 C 192.17598,37.93103 195.18399,37.06403 198.82498,37.06403 C 206.57898,37.06403 210.50801,40.79901 210.50801,48.16406 C 210.50801,48.16406 210.50801,51.79105 210.50801,52.17902 C 210.10399,52.17902 202.729,52.17902 202.32698,52.17902 C 202.32698,51.79105 202.32698,48.08902 202.32698,48.08902 C 202.32698,46.71503 202.32698,43.05402 198.74997,43.05402 C 195.10399,43.05402 195.10399,46.37906 195.10399,48.16406 L 195.10399,64.37302 C 195.10399,66.23203 195.10399,69.69904 198.897,69.69904 C 202.32698,69.69904 202.32698,66.51706 202.32698,65.32004 C 202.32698,65.32004 202.32698,61.40405 202.32698,61.01102 C 202.729,61.01102 210.10399,61.01102 210.50801,61.01102"
             style="fill:#3c72b7;fill-opacity:1;fill-rule:nonzero;stroke:none"
             id="path2664" /><path
             d="M 177.59,107.67203 C 175.604,105.76501 174.09999,105.23401 173.21898,105.23401 C 171.33401,105.23401 170.95798,106.88101 170.95798,109.53903 C 170.95798,113.17307 170.94,114.41403 173.026,115.88403 L 177.59598,118.39001 L 177.59,107.67203 z M 185.84999,108.59302 L 185.84999,129.98203 C 185.84999,131.86102 185.28798,134.94302 181.51399,136.86902 C 179.75998,137.77501 177.55899,138.23203 174.96899,138.23203 C 170.74298,138.23203 167.942,137.25403 166.147,135.45706 C 164.56299,133.87701 163.93999,132.25702 163.93999,128.93301 L 163.93599,126.32404 L 171.21501,126.32404 L 171.24501,128.94101 C 171.21501,131.53702 172.09799,132.66202 174.54498,132.66202 C 176.51399,132.66202 177.59399,131.60901 177.59399,129.50906 C 177.66801,129.12305 177.59,124.90805 177.59,124.90805 L 169.37898,120.74402 C 163.80699,117.95901 162.87601,115.17001 162.87601,108.59903 C 162.87601,105.07602 163.03201,99.26901 169.40898,99.26901 C 173.30498,99.26901 174.23898,100.36102 176.89699,102.33405 L 177.78998,103.03702 C 177.78998,103.03702 177.81099,101.56601 178.05699,99.91003 C 178.05699,99.91003 185.565,99.89804 186.37198,99.89804 C 186.01799,102.65604 185.84999,103.78503 185.84999,108.59302"
             style="fill:#be002f;fill-opacity:1;fill-rule:nonzero;stroke:none"
             id="path2666" /><path
             d="M 84.13478,169.84903 C 82.14848,167.94101 80.6465,167.41002 79.7598,167.41002 C 77.87901,167.41002 77.49809,169.05603 77.49809,171.71603 C 77.49809,175.351 77.4825,176.59103 79.56839,178.06204 L 84.13869,180.56599 L 84.13478,169.84903 z M 92.39459,170.77104 L 92.39459,192.15802 C 92.39459,194.03903 91.83209,197.12302 88.06059,199.045 C 86.30469,199.95102 84.10359,200.40802 81.51369,200.40802 C 77.28519,200.40802 74.48439,199.43103 72.69148,197.63403 C 71.10548,196.05203 70.48248,194.433 70.48248,191.10901 L 70.47859,188.50203 L 77.75978,188.50203 L 77.78719,191.11703 C 77.75978,193.71504 78.64259,194.838 81.08989,194.838 C 83.05859,194.838 84.13869,193.78503 84.13869,191.68503 C 84.21289,191.30003 84.13478,187.088 84.13478,187.088 L 75.92389,182.92 C 70.3497,180.13403 69.41798,177.34303 69.41798,170.77501 C 69.41798,167.25403 69.5743,161.44505 75.95119,161.44505 C 79.84769,161.44505 80.78319,162.53703 83.44148,164.51103 L 84.33398,165.21503 C 84.33398,165.21503 84.35359,163.74402 84.60159,162.08603 C 84.60159,162.08603 92.10939,162.07602 92.91609,162.07602 C 92.56259,164.83403 92.39459,165.96503 92.39459,170.77104"
             style="fill:#be002f;fill-opacity:1;fill-rule:nonzero;stroke:none"
             id="path2668" /><path
             d="M 145.24298,49.13403 C 145.24298,47.45102 145.24298,43.94904 141.59398,43.94904 C 137.79898,43.94904 137.79898,47.19507 137.79898,49.13403 L 137.79898,63.93503 C 137.79898,65.69504 138.13098,68.97403 141.813,68.97403 C 145.24298,68.97403 145.24298,65.50903 145.24298,64.17706 L 145.24298,49.13403 z M 145.901,75.56406 C 141.92198,75.56406 139.84201,73.81003 138.13899,71.94302 L 137.75998,71.56003 C 137.75998,71.56003 137.75998,88.56201 137.75998,88.98602 C 137.358,88.98602 129.60201,88.98602 129.60201,88.98602 L 129.60201,37.79501 L 137.91499,37.79501 L 137.91499,41.02701 L 140.03198,39.33905 C 141.33098,38.37503 143.23099,37.13602 146.26599,37.13602 C 147.55701,37.13602 153.56699,37.43903 153.56699,45.92206 L 153.56699,67.02106 C 153.56699,73.77905 148.55298,75.56406 145.901,75.56406"
             style="fill:#3c72b7;fill-opacity:1;fill-rule:nonzero;stroke:none"
             id="path2670" /><path
             d="M 100.78999,111.29102 C 100.78999,109.60706 100.78999,106.10501 97.1407,106.10501 C 93.34578,106.10501 93.34578,109.35303 93.34578,111.29102 L 93.34578,126.09103 C 93.34578,127.85306 93.6778,131.13202 97.35939,131.13202 C 100.78999,131.13202 100.78999,127.66602 100.78999,126.33203 L 100.78999,111.29102 z M 101.44798,137.72202 C 97.4688,137.72202 95.38869,135.96802 93.68559,134.10101 L 93.30469,133.71605 C 93.30469,133.71605 93.30469,150.71901 93.30469,151.14502 C 92.90237,151.14502 85.14848,151.14502 85.14848,151.14502 L 85.14848,99.95102 L 93.46098,99.95102 L 93.46098,103.18301 L 95.57819,101.49606 C 96.87498,100.53104 98.77739,99.29501 101.81299,99.29501 C 103.10399,99.29501 109.11598,99.59702 109.11598,108.07803 L 109.11598,129.17703 C 109.11598,135.93701 104.09999,137.72202 101.44798,137.72202"
             style="fill:#be002f;fill-opacity:1;fill-rule:nonzero;stroke:none"
             id="path2672" /><path
             d="M 75.49998,85.37302 C 75.49998,85.86304 75.49998,87.13101 77.01369,87.13101 C 78.63869,87.13101 78.78319,85.93103 78.78319,85.28503 L 78.78319,79.84103 C 78.78319,79.13101 78.78319,77.94101 77.10939,77.94101 C 75.49998,77.94101 75.49998,79.22403 75.49998,79.84103 L 75.49998,85.37302 z M 71.8282,86.41803 L 71.8282,78.66403 C 71.8282,75.55603 74.48048,75.44504 75.04889,75.44504 C 76.38869,75.44504 77.22658,75.89804 77.79889,76.25201 L 78.73248,76.87103 L 78.73248,75.68704 L 82.40819,75.68704 L 82.39458,94.01901 C 82.39458,94.01901 78.98048,94.00903 78.8008,94.00903 C 78.8008,93.85501 78.8008,88.08203 78.8008,88.08203 L 78.6348,88.22003 C 77.88289,88.90402 76.96678,89.54901 75.21098,89.54901 C 74.04109,89.54901 71.8282,88.89603 71.8282,86.41803"
             style="fill:#3c72b7;fill-opacity:1;fill-rule:nonzero;stroke:none"
             id="path2674" /><path
             d="M 161.632,312.73206 C 141.23,301.84103 125.14198,279.72803 125.14198,279.72803 C 124.68799,279.09903 123.65099,278.52103 122.78699,278.44302 L 120.77699,278.23502 C 119.91298,278.15704 119.59499,278.59903 120.07298,279.21402 C 120.07298,279.21402 129.73698,291.72003 134.67398,296.79202 C 141.097,303.39203 146.67398,308.55002 151.44699,312.40704 C 158.04698,317.74304 162.20398,320.90903 169.53398,329.46204 C 176.817,337.96704 177.28499,347.54004 176.90302,352.54599 L 165.007,348.54599 C 156.25798,342.44998 144.85298,333.74304 140.076,326.79602 C 134.29599,318.38202 133.81499,315.55002 132.54201,310.69403 C 131.62599,307.18704 129.44798,302.33102 125.88199,295.99503 C 123.14099,291.12204 113.47699,278.61804 113.47699,278.61804 C 112.99998,278.00104 111.90298,277.43103 111.03899,277.35303 L 109.58699,277.19803 C 108.72298,277.12003 108.42198,277.55203 108.91998,278.15704 C 108.91998,278.15704 127.27499,300.49304 121.90599,309.05203 C 119.18298,313.39404 107.74799,311.04602 97.75839,303.99503 C 84.51128,294.64404 82.30519,283.08902 83.5289,277.37604 C 83.67239,277.31604 87.6089,284.73706 96.70369,289.14005 C 104.04799,292.69604 109.63599,291.85504 108.47202,286.90204 C 107.90598,284.49304 103.39098,277.73203 103.39098,277.73203 C 102.96298,277.09103 101.90598,276.50302 101.04198,276.42502 L 94.82378,275.94104 C 93.95949,275.86203 92.86189,275.29404 92.38528,274.67703 L 87.44099,268.27805 C 86.9644,267.66104 87.28079,267.22003 88.1451,267.29803 L 102.38098,268.53204 C 103.24599,268.61102 103.57698,268.16104 103.11801,267.53598 C 103.11801,267.53598 93.66899,256.96402 86.33788,259.59503 C 85.62701,258.09503 85.57819,254.53804 87.53319,253.75104 C 88.87988,253.21001 91.03909,253.80603 94.39069,256.11404 C 94.39069,256.11404 88.32919,249.72603 87.13289,246.73804 C 85.98689,243.84601 86.53319,242.75703 87.33549,242.02103 L 92.66798,244.02203 C 94.02939,244.89203 95.56839,246.03903 97.39558,247.66803 C 100.994,250.87204 104.16899,256.43304 104.16899,256.43304 C 103.98799,254.87201 106.73499,254.34903 108.94798,255.02803 C 114.04099,256.59302 118.40598,261.46002 117.91499,261.34702 C 105.50099,258.51904 113.61099,268.52502 113.61099,268.52502 C 114.10298,269.13202 115.21298,269.69403 116.07799,269.77304 L 132.04399,271.25504 C 132.90898,271.33304 134.00598,271.90204 134.48198,272.51703 L 139.42699,278.91702 C 139.90399,279.53403 139.58598,279.97604 138.72197,279.89603 L 131.41798,279.25903 C 130.552,279.18103 130.27098,279.60104 130.79099,280.19403 C 130.79099,280.19403 136.931,287.20804 140.27899,289.86404 C 147.17101,295.33704 155.00101,297.39603 157.537,294.73206 C 160.68498,291.43903 152.87999,283.66504 153.14598,283.76498 C 161.68298,286.87402 169.21599,293.83502 170.619,295.25903 C 176.33,301.06403 180.68498,305.64203 181.011,311.61603 C 181.33899,317.59906 171.97798,318.25504 161.632,312.73206"
             style="fill:#ffffff;fill-opacity:1;fill-rule:nonzero;stroke:none"
             id="path2676" /><path
             d="M 87.13289,246.73804 C 88.32919,249.72603 94.39069,256.11404 94.39069,256.11404 C 91.03909,253.80603 88.87988,253.21001 87.53319,253.75104 C 85.57819,254.53804 85.62701,258.09503 86.33788,259.59503 C 93.66899,256.96402 103.11801,267.53598 103.11801,267.53598 C 103.57698,268.16104 103.24599,268.61102 102.38098,268.53204 L 88.1451,267.29803 C 87.28079,267.22003 86.9644,267.66104 87.44099,268.27805 L 92.38528,274.67703 C 92.86189,275.29404 93.95949,275.86203 94.82378,275.94104 L 101.04198,276.42502 C 101.90598,276.50302 102.96298,277.09103 103.39098,277.73203 C 103.39098,277.73203 107.90598,284.49304 108.47202,286.90204 C 109.63599,291.85504 104.04799,292.69604 96.70369,289.14005 C 87.6089,284.73706 83.67239,277.31604 83.5289,277.37604 C 82.30519,283.08902 84.51128,294.64404 97.75839,303.99503 C 107.74799,311.04602 119.18298,313.39404 121.90599,309.05203 C 127.27499,300.49304 108.91998,278.15704 108.91998,278.15704 C 108.42198,277.55203 108.72298,277.12003 109.58699,277.19803 L 111.03899,277.35303 C 111.90298,277.43103 112.99998,278.00104 113.47699,278.61804 C 113.47699,278.61804 123.14099,291.12204 125.88199,295.99503 C 129.44798,302.33102 131.62599,307.18704 132.54201,310.69403 C 133.81499,315.55002 134.29599,318.38202 140.076,326.79602 C 144.85298,333.74304 156.25899,342.44998 165.00798,348.54599 L 144.79898,341.74902 L 158.94597,413.98303 L 37.80078,464.32294 L 75.43269,237.55104 L 87.33549,242.02103 C 86.53319,242.75703 85.98689,243.84601 87.13289,246.73804"
             style="fill:#3c72b7;fill-opacity:1;fill-rule:nonzero;stroke:none"
             id="path2678" /><path
             d="M 176.90302,352.54703 C 177.28499,347.54004 176.81799,337.96799 169.53398,329.46204 C 162.20398,320.90903 158.04698,317.74304 151.44699,312.40704 C 146.67398,308.55002 141.097,303.39203 134.67398,296.79202 C 129.73698,291.72003 120.07298,279.21402 120.07298,279.21402 C 119.59499,278.59903 119.91298,278.15704 120.77699,278.23502 L 122.78699,278.44302 C 123.65099,278.52103 124.68799,279.09903 125.14198,279.72803 C 125.14198,279.72803 141.23,301.84103 161.632,312.73206 C 171.97798,318.25504 181.33899,317.59906 181.011,311.61603 C 180.68498,305.64203 176.33,301.06403 170.619,295.25903 C 169.21599,293.83502 161.68298,286.87402 153.14598,283.76498 C 152.87999,283.66504 160.68498,291.43903 157.537,294.73206 C 155.00101,297.39603 147.17101,295.33704 140.27899,289.86404 C 136.931,287.20804 130.79099,280.19403 130.79099,280.19403 C 130.27098,279.60104 130.552,279.18103 131.41798,279.25903 L 138.72197,279.89603 C 139.58598,279.97604 139.90399,279.53403 139.42699,278.91702 L 134.48198,272.51703 C 134.00598,271.90204 132.90898,271.33304 132.04399,271.25504 L 116.07799,269.77304 C 115.21298,269.69403 114.10298,269.13202 113.61099,268.52502 C 113.61099,268.52502 105.50099,258.51904 117.91499,261.34702 C 118.40598,261.46002 114.04099,256.59302 108.94798,255.02803 C 106.73499,254.34903 103.98799,254.87201 104.16899,256.43304 C 104.16899,256.43304 100.994,250.87204 97.39558,247.66803 C 95.56839,246.03903 94.02939,244.89203 92.66798,244.02203 L 210.56897,288.28003 L 210.56897,363.86804 L 176.90302,352.54703"
             style="fill:#be002f;fill-opacity:1;fill-rule:nonzero;stroke:none"
             id="path2680" /></g></g></g></g></svg>