<?xml version="1.0" encoding="utf-8"?>
<!-- Generator: Adobe Illustrator 19.2.1, SVG Export Plug-In . SVG Version: 6.00 Build 0)  -->
<svg version="1.1" id="Layer_1" xmlns="http://www.w3.org/2000/svg" xmlns:xlink="http://www.w3.org/1999/xlink" x="0px" y="0px"
	 viewBox="0 0 764.7 469" style="enable-background:new 0 0 764.7 469;" xml:space="preserve">
<style type="text/css">
	.st0{fill:#E75300;}
	.st1{display:none;opacity:0.35;fill:#777777;}
	.st2{display:none;opacity:0.35;}
	.st3{display:inline;fill:#777777;}
</style>
<g>
	<path class="st0" d="M662.1,206.6c7.8,0,11.5-2.6,11.5-2.6v10.3c0,0-6.6,1.9-12.8,1.9c-17.7,0-28.4-9.2-28.4-24.3
		c0-15,10.8-24.3,27.7-24.3c7.9,0,13.4,2.3,13.4,2.3v9.9c0,0-4.8-2.6-12.2-2.6c-8.6,0-14.6,5.5-14.6,14.7
		C646.9,201.1,652.7,206.6,662.1,206.6z"/>
	<path class="st0" d="M333.5,295.1V284c5.1,3.1,11.6,5.2,17.7,5.2c5.5,0,8.3-1,8.3-4.1c0-2.7-2.6-4.3-10.6-6.4
		c-10.6-2.8-15.3-7.9-15.3-14.4c0-8.9,6.7-14,20.2-14c6.1,0,11.8,0.7,16.8,2.6V263c-4.2-1.5-10.4-3.1-14.9-3.1
		c-5.4,0-7.2,1.5-7.2,3.8c0,2.8,2.3,3.8,9.9,5.9c12.1,3.3,15.8,8,15.8,14.1c0,9.5-7.2,15.2-21.6,15.2
		C345.7,298.8,339,297.6,333.5,295.1z"/>
	<path id="path2446_8_" class="st0" d="M61.3,208.2l21.8-7c0,0-21.9-32.8-7.7-81.1l-19-8.7C56.4,111.4,35.4,150.4,61.3,208.2"/>
	<path id="path2450_8_" class="st0" d="M75.4,120l20.4,9.4c0,0,8.8-37.8,52-61.2l-6.3-19.9C141.5,48.3,98.4,60.7,75.4,120"/>
	<path id="path2454_8_" class="st0" d="M147.9,68.1l6.7,21.6c0,0,32.9-19.5,80.7-3.8l12.3-18C247.5,67.9,207.2,44.9,147.9,68.1"/>
	<path id="path2458_7_" class="st0" d="M222.7,104.4l12.5-18.5c0,0,46.9,29.5,53.8,82h-22.2C266.9,167.9,261.5,128.6,222.7,104.4"/>
	<path id="path2462_9_" class="st0" d="M288.3,192.4c-2.2-5.2-0.6-10.5-2.5-15.9c-1.2-0.7-1.9-2.4-2.2-4c-4-1-2.5,4.2-5.4,5.6
		c0.5,0.9,0.5,1.2,0.3,2.1c-4.1,3.1-4.2,7.9-7.5,11.1c0.4,4-1.9,7.8-2.5,11.8c-1.2,3.4-3.3,6.6-3.8,10c-4.2,5.1-7.5,10.4-11.3,15.6
		c-21.1,28.6-52.5,37.5-86.7,36.3c-27.3-1.2-51.3-11-72-28.8c-1.6-5.2-6.7-8.9-10-13.5c-1.7-1.2-1.4-4.4-3.7-3.9
		c-0.6-0.6-1.4-1.1-1.5-1.8c-4.2-0.9-5.4-7.6-10-6.6c1.4,4.4,0.5,9.8,2,14.1c3.4,1.8,1.3,5.1,1.9,7.6c12.8,32.2,47.3,55.5,79.8,60.7
		c1.9,0.7,3.9,1,5.9,1.1c2.4,0.5,10.8,1.9,11,2c0.3,0.1,3.2,0.9,3.4,2.8l0-0.1c4.5,11.2,9.6,21.1,13.2,31.5c3.9,3,2.3,8.2,6.4,10.9
		c6.9,16.6,20,31.5,30.8,46.8c1.7,2.3,4.1,4.4,6.7,5.4c0.4-4.3-6-4.2-4.5-8.5c11.7,7.3,16.9,19.5,27.6,27.2c1.1-0.9-0.2-1.4,0-2.5
		c-3.9-3.1-4.3-8.5-9-10.9c1.2-1.4,2.3,1.2,3.4,0.3l18.9,18.1c3.8-1,5.7,4.4,9.2,3.2c0.3-2-1.7-2-2.6-3.4c-0.8-5.6-7-9.5-9.7-14.2
		c-1-2.6-2.7-5.3-3.5-7.6c1.9,2,3.1,4.4,5.6,5.5l0.5-0.3c-0.6-1.2-0.2-3-1.9-3.3c-0.2-5.2-5.8-7.9-7.5-12.4l0.7-0.7
		c2.8,1,3.3,4.7,6.3,6l0.7-1.1c0.3,0.8,1.1,0.3,1.5,0.5c-1.6-4.7,0.5,1.8,1.3-3.4c-4.2-3.5-3.9-8.8-6-13.1c1.6-1.1,2.8,1.4,4.5,1.8
		c-0.5-3.5-3.3-6.1-4.6-9.1l0.8-0.8c4.9,2.7,7.6,8.5,12.3,12l-1.2-6.3c-6.4-11.7-12.6-23.7-20.3-35l-0.3-2.3
		c-9.7-14.4-17.2-29.8-24-45.6c-0.7-3.4,3.7-5.8,3.7-5.8l0,0c21.4-9.9,39-32.7,48.4-53.2c0.8-6.8,3.3-12.8,6-18.9
		C286,203.9,287.2,198,288.3,192.4"/>
	<path id="path2466_9_" class="st0" d="M158.1,221.7c0.8,0.5,2,0.6,1.5,1.8c5.8,5.2,2.3,14.2,7.6,19.3c1.5,0.2,3.5-1.1,4.7,0.4
		c2.2,3.3,4.6,1,6.6,4.6c2.6-1.4,3.3,2.4,5.2,1.8c2.8-6.2,7.5,0.5,11-0.2c-0.2-5.4,6.5-2.4,7.3-7.5c2.6-8.4,2.6-20.2-3.5-27.2
		c0-4.7-4-8.1-3.8-13.1c-4.5-4.5-10.6-6.9-14.4-11.9l-1.1,1.4l-0.8-0.6c-2.1,1.7-2.2-1.6-4.2-1.4c0,0.9,0.3,1.9-0.3,2.5
		c-3.8,0.2-6.6-2.3-10.3-2.5c-0.7,2,0.4,4.9-2.2,5.8C152.3,202,159.5,211.2,158.1,221.7"/>
	<path class="st0" d="M493.4,378.7"/>
	<g>
		<path class="st0" d="M441.8,189.8c0,5.7,0,16.8,0,16.8s-7.1,0-11.3,0c-3,0-5.2-0.9-6.6-2.6c-1.4-1.7-2.1-4.3-2.1-7.8v-29h-14.4
			v31.2c0,5.7,1.6,10,4.8,13c3.2,3,8,4.7,14.3,4.7c3.7,0,29.6,0,29.6,0v-48.9h-14.4V189.8z"/>
		<path class="st0" d="M604.8,216.2c10.4,0,17.6-4,17.6-4v-9.5c0,0-7.9,4-16.9,4c-11.5,0-13.4-6.5-13.4-10.6h34.3
			c0-9.6-0.8-16.5-6.2-21.9c-4-3.9-10-6.7-17.4-6.7c-7.8,0-13.9,2.1-18.4,6.4c-4.4,4.3-6.6,10.4-6.6,18.2c0,7.6,2.4,13.5,7.2,17.7
			C589.7,214.1,596.3,216.2,604.8,216.2z M602.6,177.2c10,0,10.5,9.6,10.5,9.6h-21C592.2,186.8,592.6,177.2,602.6,177.2z"/>
		<path class="st0" d="M694.8,298.8c10.4,0,17.6-4,17.6-4v-9.5c0,0-7.9,4-16.9,4c-11.5,0-13.4-6.5-13.4-10.6h34.3
			c0-9.6-0.8-16.5-6.2-21.9c-4-3.9-10-6.7-17.4-6.7c-7.8,0-13.9,2.1-18.4,6.4c-4.4,4.3-6.6,10.4-6.6,18.2c0,7.6,2.4,13.5,7.2,17.7
			C679.6,296.7,686.3,298.8,694.8,298.8z M692.6,259.8c10,0,10.5,9.6,10.5,9.6h-21C682.1,269.5,682.6,259.8,692.6,259.8z"/>
		<path class="st0" d="M492.4,216.2c10.4,0,17.6-4,17.6-4v-9.5c0,0-7.9,4-16.9,4c-11.5,0-13.4-6.5-13.4-10.6H514
			c0-9.6-0.8-16.5-6.2-21.9c-4-3.9-10-6.7-17.4-6.7c-7.8,0-13.9,2.1-18.4,6.4c-4.4,4.3-6.6,10.4-6.6,18.2c0,7.6,2.4,13.5,7.2,17.7
			C477.3,214.1,483.9,216.2,492.4,216.2z M490.3,177.2c10,0,10.5,9.6,10.5,9.6h-21C479.8,186.8,480.2,177.2,490.3,177.2z"/>
		<polygon class="st0" points="504.6,149.5 489.4,149.5 479.2,162 491.4,162 		"/>
		<path class="st0" d="M551.6,216.1c6.4,0,11.5-1.3,15.2-5.7c3.7-4.3,5.6-10.5,5.6-18.4c0-7.7-1.8-13.7-5.4-18.2
			c-3.6-4.4-8.6-6.6-15-6.6c-6.8,0-15.3,0.1-15.3,0.1v-18h-14.7v66.7h13.7C535.7,216.1,545.2,216.1,551.6,216.1z M536.7,177.1
			c0,0,6.9,0,10.6,0c3.1,0,5.6,1.2,7.4,3.6c1.8,2.4,2.7,6,2.7,10.9c0,4.8-0.9,8.5-2.7,11c-1.8,2.5-4.2,3.8-7.2,3.8
			c-3.7,0-10.7,0-10.7,0V177.1z"/>
		<path class="st0" d="M526.3,298.8H540v-66.7h-14.7v18.1c0,0-8.5,0-15.3,0c-6.4,0-11.4,2.1-15,6.5c-3.6,4.4-5.4,10.3-5.4,18
			c0,7.9,1.9,14,5.6,18.4c3.7,4.3,8.8,5.7,15.2,5.7C516.7,298.8,526.3,298.8,526.3,298.8z M525.3,289.2c0,0-7,0.1-10.7,0.1
			c-3,0-5.4-1.2-7.2-3.6c-1.8-2.4-2.7-6.7-2.7-11.4c0-4.6,0.9-8.5,2.7-10.9c1.8-2.3,4.3-3.5,7.4-3.5c3.6,0,10.6,0,10.6,0V289.2z"/>
		<rect x="440.7" y="231.7" class="st0" width="14.7" height="67.1"/>
		<rect x="466.8" y="250.2" class="st0" width="14.7" height="48.6"/>
		<path class="st0" d="M589.1,254.3c-3.8-2.8-9.3-4.1-16.4-4.1c-7.5,0-14.1,1.4-20.3,4.3v9.9c7.5-4,15.2-4.6,19.4-4.6
			c5.5,0,8.3,2.4,8.3,7.2v1.3h-9c-8,0.3-12.9,1.6-16.9,4c-4,2.4-6.9,7.1-6.9,12.1c0,4.8,1.5,8.3,4.4,10.9c2.9,2.6,7,3.6,12.1,3.6
			c4.2,0,31,0,31,0v-31.9C594.8,261.3,592.9,257.1,589.1,254.3z M580.1,289.2c0,0-9,0-12.3,0c-3.2,0-5.7-2.7-5.7-5.4
			c0-2.4,0.7-4,2.8-5.2c2.1-1.2,5.2-0.9,9.6-0.9h5.6L580.1,289.2z"/>
		<rect x="606" y="250.2" class="st0" width="14.7" height="48.7"/>
		<path class="st0" d="M631.8,253.7v45.3h14.4v-36.8c0,0,5.2-2.2,18.9-2.2v-9.7C645.3,250.2,631.8,253.7,631.8,253.7z"/>
		<ellipse class="st0" cx="474.1" cy="239" rx="7.8" ry="7.3"/>
		<ellipse class="st0" cx="613.4" cy="239" rx="7.8" ry="7.3"/>
	</g>
	<path class="st0" d="M661.8,239"/>
	<path class="st0" d="M394.4,201.9c2.8-5.1,4.3-11.5,4.3-19.1c0-10.7-3.8-19-9.3-24.7c-5.5-5.7-12.5-8.6-22.9-8.6
		c-10.4,0-17.4,2.8-23,8.5c-5.6,5.7-9.4,13.9-9.4,24.7c0,10.8,2.8,19,8.4,24.8c5.6,5.8,13.6,8.6,24,8.6h1.1l12.4,14.5l11.2-7.7
		l-9.1-9.7C387.5,210.8,391.6,207,394.4,201.9z M366.5,205.6c-12,0-18-9-18-22.7c0-13.7,6.1-22.7,18-22.7c11.8,0,17.8,9,17.8,22.7
		C384.3,196.6,378.3,205.6,366.5,205.6z"/>
	<path class="st0" d="M428.6,261.6c-2.1-3.7-5.1-6.5-9-8.4c-3.9-2-8.5-2.9-13.6-2.9c-8.3,0-14.7,2.1-19.2,6.4
		c-4.6,4.2-6.8,10.2-6.8,17.9c0,4.9,1.1,9.2,3.2,12.9c2.1,3.7,5.1,6.5,9.1,8.5c3.9,2,8.5,3,13.6,3c8.2,0,14.6-2.2,19.2-6.5
		c4.6-4.3,6.9-10.3,6.9-17.9C431.7,269.5,430.7,265.3,428.6,261.6z M405.8,289.1c-7.2,0-11.8-6.5-11.8-14.6
		c0-8.1,4.2-14.6,11.8-14.6c7.6,0,11.8,6.5,11.8,14.6C417.6,282.6,413,289.1,405.8,289.1z"/>
</g>
<path class="st1" d="M663,207c8,0,11.9-2.6,11.9-2.6V215c0,0-6.8,1.9-13.1,1.9c-18.2,0-29.2-9.5-29.2-25c0-15.4,11.1-25,28.5-25
	c8.1,0,13.8,2.3,13.8,2.3v10.2c0,0-5-2.7-12.6-2.7c-8.8,0-15,5.6-15,15.1S653.3,207,663,207z"/>
<path class="st1" d="M333.6,294.9v-11.1c5,3.1,11.5,5.2,17.6,5.2c5.4,0,8-1.5,8-4.6c0-2.7-2.2-4.2-10.1-6.3
	c-10.5-2.8-15.2-7.6-15.2-14.1c0-8.8,7.5-13.6,20.8-13.6c6.1,0,10.9,0.7,15.8,2.6v10.2c-4.1-2-9.3-3.3-14.4-3.3
	c-5.3,0-7.4,1.4-7.4,3.6c0,2.6,2.1,4.3,9.6,6.3c12,3.3,15.7,8.1,15.7,14.1c0,9.4-7.2,14.7-21.4,14.7
	C345.7,298.6,339.1,297.4,333.6,294.9z"/>
<g class="st2">
	<path class="st3" d="M381.7,212.9c5.5-2.4,9.6-6.1,12.5-11.3c2.8-5.1,4.3-11.5,4.3-19.1c0-10.7-3.8-18.9-9.3-24.6
		c-5.5-5.7-12.5-8.6-22.9-8.6c-10.4,0-17.4,2.8-23,8.5c-5.6,5.7-9.4,13.9-9.4,24.6c0,10.7,2.8,19,8.4,24.7c5.6,5.7,13.6,8.6,24,8.6
		h1.1l12.5,14.5l11.2-7.7L381.7,212.9z M364.9,204.3c-12.1,0-16-14.5-16-21.7c0-7.2,3.6-21.8,16-21.8s18.5,7.3,18.5,21.8
		C383.3,197,376.9,204.3,364.9,204.3z"/>
	<path class="st3" d="M441.7,189.8c0,5.7,0,14.8,0,14.8s-6.8,0-11,0c-3,0-5.2-0.9-6.6-2.6c-1.4-1.7-2.1-4.3-2.1-7.8v-27h-14.7v31.2
		c0,5.7,1.6,10,4.8,13c3.2,3,8,4.7,14.3,4.7c3.7,0,29.6,0,29.6,0v-48.9h-14.4V189.8z"/>
	<path class="st3" d="M694.8,298.9c10.4,0,17.6-4,17.6-4v-9.5c0,0-7.9,4-16.9,4c-11.5,0-13.9-6.5-13.9-10.6h34.8
		c0-9.6-0.8-16.5-6.2-21.9c-4-3.9-10-6.7-17.4-6.7c-7.8,0-13.9,2.1-18.4,6.4c-4.4,4.3-6.6,10.4-6.6,18.2c0,7.6,2.4,13.5,7.2,17.7
		C679.7,296.8,686.3,298.9,694.8,298.9z M692.8,259.4c10.1,0,11.1,9.9,11.1,9.9h-22.3C681.6,269.3,682.8,259.4,692.8,259.4z"/>
	<path class="st3" d="M604.8,215.8c10.4,0,17.6-4,17.6-4v-9.5c0,0-7.9,4-16.9,4c-11.5,0-13.9-6.5-13.9-10.6h34.8
		c0-9.6-0.8-16.5-6.2-21.9c-4-3.9-10-6.7-17.4-6.7c-7.8,0-13.9,2.1-18.4,6.4c-4.4,4.3-6.6,10.4-6.6,18.2c0,7.6,2.4,13.5,7.2,17.7
		C589.7,213.7,596.3,215.8,604.8,215.8z M602.8,176.3c10.1,0,11.1,9.9,11.1,9.9h-22.3C591.6,186.2,592.8,176.3,602.8,176.3z"/>
	<path class="st3" d="M492.3,215.8c10.4,0,17.6-4,17.6-4v-9.5c0,0-7.9,4-16.9,4c-11.5,0-13.9-6.5-13.9-10.6h34.8
		c0-9.6-0.8-16.5-6.2-21.9c-4-3.9-10-6.7-17.4-6.7c-7.8,0-13.9,2.1-18.4,6.4c-4.4,4.3-6.6,10.4-6.6,18.2c0,7.6,2.4,13.5,7.2,17.7
		C477.1,213.7,483.7,215.8,492.3,215.8z M490.2,176.3c10.1,0,11.1,9.9,11.1,9.9H479C479,186.2,480.2,176.3,490.2,176.3z"/>
	<polygon class="st3" points="504.5,149.5 489.3,149.5 479.1,162 491.4,162 	"/>
	<path class="st3" d="M551.6,216.1c6.4,0,11.5-1.3,15.2-5.7c3.7-4.3,5.6-10.5,5.6-18.4c0-7.7-1.8-13.7-5.4-18.2
		c-3.6-4.4-8.6-6.6-15-6.6c-6.8,0-15.3,0.1-15.3,0.1v-18h-14.7v66.7h13.7C535.6,216.1,545.2,216.1,551.6,216.1z M536.7,177.9
		c0,0,6.9-0.1,10.6-0.1c3.1,0,5.6,1.2,7.4,3.5c1.8,2.4,2.7,5.9,2.7,10.6c0,4.7-0.9,8.3-2.7,10.8c-1.8,2.5-4.2,3.7-7.2,3.7
		c-3.7,0-10.7-0.1-10.7-0.1V177.9z"/>
	<path class="st3" d="M526.3,298.8H540v-66.7h-14.7v18c0,0-8.5-0.1-15.3-0.1c-6.4,0-11.4,2.2-15,6.6c-3.6,4.4-5.4,10.5-5.4,18.2
		c0,7.9,1.9,14,5.6,18.4c3.7,4.3,8.8,5.7,15.2,5.7C516.7,298.8,526.3,298.8,526.3,298.8z M525.3,289c0,0-7,0.1-10.7,0.1
		c-3,0-5.4-1.2-7.2-3.7c-1.8-2.5-2.7-6.1-2.7-10.8c0-4.7,0.9-8.2,2.7-10.6c1.8-2.4,4.3-3.5,7.4-3.5c3.6,0,10.6,0.1,10.6,0.1V289z"/>
	<path class="st3" d="M419.6,252.8c-4-2-8.6-3-13.7-3c-8.4,0-14.8,2.1-19.5,6.4c-4.6,4.3-6.9,10.3-6.9,18c0,5,1.1,9.3,3.2,13
		c2.1,3.7,5.2,6.6,9.2,8.6c4,2,8.6,3,13.7,3c8.3,0,14.8-2.2,19.4-6.5c4.6-4.3,7-10.4,7-18.1c0-5-1.1-9.3-3.2-13
		C426.6,257.6,423.6,254.8,419.6,252.8z M414.4,285.2c-1.8,2.4-4.7,3.7-8.7,3.7c-4.1,0-7-1.2-8.8-3.7c-1.8-2.5-2.7-6.1-2.7-10.9
		c0-4.8,0.9-8.4,2.7-10.8c1.8-2.4,4.7-3.6,8.7-3.6c4.1,0,7,1.2,8.8,3.6c1.8,2.4,2.7,6,2.7,10.8C417.1,279.2,416.2,282.8,414.4,285.2
		z"/>
	<rect x="440.6" y="231.7" class="st3" width="14.7" height="67.1"/>
	<rect x="466.7" y="250.2" class="st3" width="14.7" height="48.6"/>
	<path class="st3" d="M589.1,254.3c-3.8-2.8-9.3-4.1-16.4-4.1c-7.5,0-14.1,1.4-20.3,4.3v9.9c7.5-4,15.4-4.6,19.7-4.6
		c5.5,0,8.3,2.4,8.3,7.2v1.3h-9.2c-8,0.3-12.9,1.6-16.9,4c-4,2.4-6.9,7.1-6.9,12.1c0,4.8,1.5,8.5,4.4,11.1c2.9,2.6,7,3.6,12.1,3.6
		c4.2,0,31,0,31,0v-32.1C594.8,261.3,592.9,257.1,589.1,254.3z M580.4,289.9c0,0-7.7,0-11.1,0c-4.7,0-7.1-1.8-7.1-5.5
		c0-2.5,1-4.4,3.1-5.7c2.1-1.2,5.2-0.9,9.4-1h5.6L580.4,289.9z"/>
	<rect x="606.1" y="250.2" class="st3" width="14.7" height="48.7"/>
	<path class="st3" d="M631.8,253.7v45.3h14.1v-35.1c0,0,5.5-2.2,19.3-2.2v-11.3C645.3,250.2,631.8,253.7,631.8,253.7z"/>
	<ellipse class="st3" cx="474.1" cy="239" rx="7.4" ry="7.3"/>
	<ellipse class="st3" cx="613.5" cy="239" rx="7.4" ry="7.3"/>
</g>
<path class="st1" d="M661.9,239"/>
</svg>
