<?xml version="1.0" encoding="utf-8"?>
<!-- Generator: Adobe Illustrator 17.0.0, SVG Export Plug-In . SVG Version: 6.00 Build 0)  -->
<!DOCTYPE svg PUBLIC "-//W3C//DTD SVG 1.1//EN" "http://www.w3.org/Graphics/SVG/1.1/DTD/svg11.dtd">
<svg version="1.1" id="Calque_1" xmlns="http://www.w3.org/2000/svg" xmlns:xlink="http://www.w3.org/1999/xlink" x="0px" y="0px"
	 width="336px" height="153px" viewBox="314.5 377.589 336 153" enable-background="new 314.5 377.589 336 153"
	 xml:space="preserve">
<g id="radar_x2B_">
	<path fill="#FFFFFF" d="M373.31,413.548c0,2.562-0.669,4.964-2.006,7.204c-1.337,2.242-3.355,4.184-6.057,5.826
		c1.281,0.447,2.382,1.088,3.299,1.922c0.92,0.836,1.673,1.777,2.257,2.819c0.585,1.045,1.014,2.158,1.294,3.343
		c0.277,1.185,0.417,2.359,0.417,3.528v8.396c0,1.085,0.259,2.339,0.773,3.76c0.516,1.418,1.218,2.88,2.11,4.385h-10.775
		c-0.417-0.669-0.752-1.365-1.002-2.089c-0.252-0.722-0.447-1.434-0.585-2.13c-0.14-0.694-0.231-1.35-0.272-1.962
		c-0.043-0.613-0.064-1.154-0.064-1.629v-8.854c0-0.862-0.145-1.726-0.437-2.59c-0.292-0.862-0.768-1.634-1.421-2.318
		c-0.656-0.681-1.505-1.238-2.547-1.67c-1.045-0.432-2.318-0.648-3.823-0.648h-14.868v23.892h-9.858v-58.267h24.726
		c3.007,0,5.681,0.503,8.02,1.505s4.309,2.306,5.91,3.904c1.601,1.601,2.819,3.427,3.655,5.473
		C372.89,409.392,373.31,411.459,373.31,413.548z M339.604,422.569h14.868c1.197,0,2.331-0.216,3.404-0.648
		c1.073-0.43,2.018-1.029,2.842-1.795c0.821-0.765,1.467-1.693,1.942-2.778c0.473-1.085,0.709-2.283,0.709-3.592
		c0-1.281-0.224-2.471-0.669-3.571c-0.445-1.098-1.065-2.046-1.858-2.839s-1.734-1.421-2.819-1.881
		c-1.085-0.458-2.27-0.689-3.551-0.689h-14.868V422.569z"/>
	<path fill="#FFFFFF" d="M410.064,396.464l21.302,58.267H421.05l-6.266-17.041h-20.969c-1.002,2.814-2.039,5.653-3.111,8.521
		c-1.073,2.867-2.107,5.709-3.111,8.521h-10.191l21.302-58.267h11.36V396.464z M404.301,408.66l-7.435,20.76h14.827L404.301,408.66z
		"/>
	<path fill="#FFFFFF" d="M436.002,396.464h22.639c4.009,0,7.608,0.76,10.796,2.278s5.902,3.592,8.144,6.223
		c2.242,2.631,3.96,5.709,5.158,9.232c1.197,3.521,1.797,7.288,1.797,11.296c0,4.176-0.633,8.048-1.901,11.612
		c-1.266,3.564-3.035,6.655-5.302,9.273c-2.27,2.618-4.992,4.664-8.167,6.139c-3.175,1.477-6.683,2.214-10.524,2.214h-22.639
		v-58.267H436.002z M445.86,446.25h10.44c2.646,0,5.097-0.45,7.351-1.357c2.257-0.902,4.204-2.234,5.849-3.988
		c1.642-1.754,2.923-3.912,3.841-6.474c0.92-2.56,1.38-5.498,1.38-8.813c0-3.617-0.468-6.736-1.401-9.354s-2.222-4.776-3.864-6.474
		c-1.642-1.698-3.592-2.959-5.846-3.78c-2.255-0.821-4.692-1.233-7.311-1.233h-10.44v41.473H445.86z"/>
	<path fill="#FFFFFF" d="M518.58,396.464l21.302,58.267h-10.315l-6.266-17.041h-20.969c-1.002,2.814-2.039,5.653-3.111,8.521
		c-1.073,2.867-2.107,5.709-3.111,8.521h-10.191l21.302-58.267h11.359V396.464z M512.817,408.66l-7.435,20.76h14.827L512.817,408.66
		z"/>
	<path fill="#FFFFFF" d="M588.082,413.548c0,2.562-0.669,4.964-2.006,7.204c-1.337,2.242-3.355,4.184-6.057,5.826
		c1.281,0.447,2.382,1.088,3.299,1.922c0.92,0.836,1.673,1.777,2.257,2.819c0.585,1.045,1.014,2.158,1.294,3.343
		c0.277,1.185,0.417,2.359,0.417,3.528v8.396c0,1.085,0.259,2.339,0.773,3.76c0.516,1.418,1.218,2.88,2.11,4.385h-10.775
		c-0.417-0.669-0.752-1.365-1.002-2.089c-0.252-0.722-0.447-1.434-0.585-2.13c-0.14-0.694-0.231-1.35-0.272-1.962
		c-0.043-0.613-0.064-1.154-0.064-1.629v-8.854c0-0.862-0.145-1.726-0.437-2.59c-0.292-0.862-0.768-1.634-1.421-2.318
		c-0.656-0.681-1.505-1.238-2.547-1.67c-1.045-0.432-2.318-0.648-3.823-0.648h-14.868v23.892h-9.858v-58.267h24.726
		c3.007,0,5.681,0.503,8.02,1.505s4.309,2.306,5.91,3.904c1.601,1.601,2.819,3.427,3.655,5.473
		C587.662,409.392,588.082,411.459,588.082,413.548z M554.375,422.569h14.868c1.197,0,2.331-0.216,3.404-0.648
		c1.073-0.43,2.018-1.029,2.842-1.795c0.821-0.765,1.467-1.693,1.942-2.778c0.473-1.085,0.709-2.283,0.709-3.592
		c0-1.281-0.224-2.471-0.669-3.571c-0.445-1.098-1.065-2.046-1.858-2.839s-1.734-1.421-2.819-1.881
		c-1.085-0.458-2.27-0.689-3.551-0.689h-14.868V422.569z"/>
	<path fill="#FFFFFF" d="M592.258,426.037h17.626v-17.125h8.393v17.125h17.753v7.392h-17.753v17.209h-8.393v-17.209h-17.626V426.037
		z"/>
	<path fill="#E9F735" d="M592.258,426.037h17.626v-17.125h8.393v17.125h17.753v7.392h-17.753v17.209h-8.393v-17.209h-17.626V426.037
		z"/>
	<g>
		<path fill="#FFFFFF" d="M543.807,491.897c-0.458-0.356-1.012-0.643-1.67-0.854c-0.656-0.214-1.393-0.32-2.211-0.32h-4.822v7.571
			h0.001h5.704c0.519,0,1.04-0.066,1.563-0.198c0.524-0.132,0.996-0.346,1.418-0.641c0.419-0.295,0.763-0.669,1.027-1.124
			c0.267-0.455,0.399-1.004,0.399-1.65c0-0.531-0.122-1.037-0.364-1.523C544.611,492.675,544.262,492.256,543.807,491.897z"/>
		<polygon fill="#FFFFFF" points="608.643,491.329 614.777,491.329 611.719,482.74 		"/>
		<path fill="#FFFFFF" d="M473.674,466.026v48.631h160.869v-48.631H473.674z M548.743,497.536c-0.414,0.852-0.971,1.591-1.667,2.219
			c-0.699,0.628-1.502,1.126-2.412,1.495c-0.91,0.371-1.856,0.554-2.834,0.554h-10.801l-0.001-24.112h9.764
			c1.141,0,2.158,0.163,3.05,0.486c0.892,0.323,1.647,0.757,2.265,1.304c0.615,0.547,1.085,1.185,1.408,1.909
			c0.323,0.727,0.483,1.5,0.483,2.316c0,1.014-0.226,1.957-0.681,2.827s-1.144,1.65-2.067,2.341
			c0.727,0.313,1.352,0.684,1.876,1.116s0.951,0.905,1.279,1.416c0.328,0.513,0.572,1.057,0.727,1.634
			c0.155,0.577,0.234,1.164,0.234,1.762C549.366,495.771,549.158,496.682,548.743,497.536z M573.743,501.803H556.15v-24.11h17.023
			v-0.001h0v0.001h0v3.438h-12.946v6.518h12.151v3.455h-12.151v7.191h13.516V501.803z M598.778,481.131h-7.621v20.671h-4.08v-20.671
			h-7.639v-3.439h19.34V481.131z M618.649,501.802l-2.59-7.051h-8.678c-0.414,1.164-0.844,2.339-1.286,3.526
			c-0.445,1.187-0.874,2.361-1.289,3.526h-4.217l8.815-24.11h4.7v-0.001l8.815,24.11H618.649z"/>
		<path fill="#FFFFFF" d="M540.222,487.303c0.564,0,1.085-0.091,1.563-0.269c0.478-0.178,0.89-0.419,1.235-0.724
			s0.615-0.663,0.803-1.073c0.191-0.409,0.287-0.839,0.287-1.286c0-0.417-0.071-0.793-0.208-1.134
			c-0.137-0.338-0.348-0.635-0.63-0.89c-0.282-0.254-0.643-0.45-1.08-0.587c-0.437-0.14-0.951-0.208-1.538-0.208h-5.549l0,6.171
			H540.222z"/>
		<rect x="573.173" y="477.692" fill="#2C2B2C" width="0" height="0.001"/>
	</g>
</g>
</svg>
