<svg id="Layer_1" data-name="Layer 1" xmlns="http://www.w3.org/2000/svg" width="10.98in" height="3.08in" viewBox="0 0 790.25 221.94">
  <title>Conservative Party of Canada Logo Eng &amp;amp; Fr</title>
  <g>
    <polyline points="116.43 0 17.75 0 0 99.03 98.68 99.03 116.43 0" style="fill: #08213a"/>
    <g style="isolation: isolate">
      <g style="isolation: isolate">
        <path d="M173.89,39.7a8.75,8.75,0,0,0-3.34-2.88,11,11,0,0,0-4.92-1A13.7,13.7,0,0,0,160.12,37a15.3,15.3,0,0,0-4.69,3.17A18.51,18.51,0,0,0,152,45a19.58,19.58,0,0,0-1.87,6.08,17.27,17.27,0,0,0,.16,6.13,13.19,13.19,0,0,0,2.1,4.82,10.15,10.15,0,0,0,3.74,3.17,11,11,0,0,0,5,1.14A12.41,12.41,0,0,0,166.88,65a13.71,13.71,0,0,0,4.52-3.74L179,67.74A21.82,21.82,0,0,1,170.68,74a24.54,24.54,0,0,1-9.57,2,26.3,26.3,0,0,1-9.81-1.74,18.45,18.45,0,0,1-11.37-12.85,25.55,25.55,0,0,1-.46-10.31,29.55,29.55,0,0,1,3.31-10.3,27.85,27.85,0,0,1,6.29-7.86,27.24,27.24,0,0,1,8.63-5A30.21,30.21,0,0,1,168,26.18a23.42,23.42,0,0,1,4,.37,20.5,20.5,0,0,1,4,1.17,16.18,16.18,0,0,1,3.7,2.14,12.1,12.1,0,0,1,2.92,3.28Z" transform="translate(-0.58)" style="fill: #08213a"/>
        <path d="M195.86,51.07a29.75,29.75,0,0,1,3.31-10.3,27.71,27.71,0,0,1,6.3-7.86,27.09,27.09,0,0,1,8.62-5,30.3,30.3,0,0,1,10.29-1.74,26.06,26.06,0,0,1,9.78,1.74A18.5,18.5,0,0,1,245.5,40.77a25.87,25.87,0,0,1,.46,10.3,30.35,30.35,0,0,1-3.28,10.31,27,27,0,0,1-6.3,7.86,27.34,27.34,0,0,1-8.62,5A30,30,0,0,1,217.5,76a26.21,26.21,0,0,1-9.8-1.74,18.79,18.79,0,0,1-7.25-5,19.12,19.12,0,0,1-4.13-7.86A25.91,25.91,0,0,1,195.86,51.07Zm10.62,0a16.78,16.78,0,0,0,.2,6.13A12.34,12.34,0,0,0,208.94,62a10.77,10.77,0,0,0,4.1,3.17,13.72,13.72,0,0,0,5.77,1.14,16.11,16.11,0,0,0,6.1-1.14,15.61,15.61,0,0,0,5-3.17,17.4,17.4,0,0,0,3.58-4.82,19.24,19.24,0,0,0,1.87-6.13,17,17,0,0,0-.17-6.08,11.66,11.66,0,0,0-2.26-4.86A11.13,11.13,0,0,0,228.78,37,13.75,13.75,0,0,0,223,35.82a16.11,16.11,0,0,0-6.1,1.14,15.79,15.79,0,0,0-5,3.17A17.16,17.16,0,0,0,208.35,45,19.58,19.58,0,0,0,206.48,51.07Z" transform="translate(-0.58)" style="fill: #08213a"/>
        <path d="M267.66,27.39h13.9l15.22,32.92h.13l4.52-32.92h10.23l-6.49,47.37H291.79L276.12,41H276L271.4,74.76H261.17Z" transform="translate(-0.58)" style="fill: #08213a"/>
        <path d="M354,39a6.14,6.14,0,0,0-3.08-2.37,10.46,10.46,0,0,0-6.3-.5,9.09,9.09,0,0,0-2.33.83,6.19,6.19,0,0,0-1.87,1.51,4.47,4.47,0,0,0-1,2.27,3.59,3.59,0,0,0,.56,2.65,5.8,5.8,0,0,0,2.16,1.74,19.29,19.29,0,0,0,3.28,1.23c1.25.36,2.5.76,3.77,1.21a30.29,30.29,0,0,1,3.71,1.6A11.14,11.14,0,0,1,356,51.51a8.88,8.88,0,0,1,1.93,3.61,12.54,12.54,0,0,1,.17,5.26,16.9,16.9,0,0,1-2.39,6.89,17.31,17.31,0,0,1-4.6,4.88A19,19,0,0,1,345,75a26.25,26.25,0,0,1-7,.94,22.66,22.66,0,0,1-8.19-1.41A17.77,17.77,0,0,1,323.2,70l8.46-8.16a9.07,9.07,0,0,0,3.51,3.31,9.94,9.94,0,0,0,4.75,1.17,11.45,11.45,0,0,0,2.56-.3,9.66,9.66,0,0,0,2.43-.9,6.25,6.25,0,0,0,1.87-1.54,4.6,4.6,0,0,0,1-2.21A3.44,3.44,0,0,0,346.58,58a13.05,13.05,0,0,0-3.77-2.11q-2.3-.87-5-1.74a19.93,19.93,0,0,1-4.92-2.34,10.34,10.34,0,0,1-3.51-3.88,10.56,10.56,0,0,1-.75-6.36A16.11,16.11,0,0,1,331,34.88a17.69,17.69,0,0,1,4.62-4.82,20.56,20.56,0,0,1,6.1-2.91,24.37,24.37,0,0,1,6.75-1A24,24,0,0,1,356,27.32,14.33,14.33,0,0,1,362,31.14Z" transform="translate(-0.58)" style="fill: #08213a"/>
        <path d="M382.09,27.39h31.54L412.32,37H391l-1.25,8.84h20.13l-1.31,9.63H388.45l-1.31,9.64h22.49l-1.31,9.63H375.6Z" transform="translate(-0.58)" style="fill: #08213a"/>
      </g>
      <g style="isolation: isolate">
        <path d="M434.48,27.39h18a29.77,29.77,0,0,1,6.63.7,13.6,13.6,0,0,1,5.24,2.34,9.71,9.71,0,0,1,3.22,4.42,14.19,14.19,0,0,1,.46,6.92,16.48,16.48,0,0,1-3.74,8.54,13.47,13.47,0,0,1-8.07,4.44l9.05,20H453l-7.15-18.93h-5.05l-2.56,18.93H428ZM442,47h6c.92,0,1.89,0,2.92-.1a9.56,9.56,0,0,0,2.85-.6,6,6,0,0,0,2.3-1.57,5.41,5.41,0,0,0,1.24-3,4.49,4.49,0,0,0-.33-2.88,4,4,0,0,0-1.64-1.64,7.27,7.27,0,0,0-2.45-.77,20.36,20.36,0,0,0-2.79-.2h-6.69Z" transform="translate(-0.58)" style="fill: #08213a"/>
      </g>
      <g style="isolation: isolate">
        <path d="M482.68,27.39h11.67l7.21,31.05h.14l15.93-31h11L502.94,74.76h-8.2Z" transform="translate(-0.58)" style="fill: #08213a"/>
      </g>
      <g style="isolation: isolate">
        <path d="M556.58,27.39H565l13.71,47.37H567.21l-2.63-10h-18l-5.25,10H530Zm2,13.78-7.68,14.72h11.35Z" transform="translate(-0.58)" style="fill: #08213a"/>
      </g>
      <g style="isolation: isolate">
        <path d="M603.08,36.62H589.83l1.25-9.23H627.8l-1.25,9.23H613.31l-5.25,38.14H597.83Z" transform="translate(-0.58)" style="fill: #08213a"/>
        <path d="M644.26,27.39h10.23L648,74.76H637.76Z" transform="translate(-0.58)" style="fill: #08213a"/>
        <path d="M670.62,27.39h11.67l7.21,31.05h.13l15.94-31h10.95L690.88,74.76h-8.2Z" transform="translate(-0.58)" style="fill: #08213a"/>
        <path d="M733.17,27.39h31.54L763.4,37H742.09l-1.25,8.84H761l-1.31,9.63H739.53l-1.31,9.64h22.49l-1.31,9.63H726.68Z" transform="translate(-0.58)" style="fill: #08213a"/>
      </g>
    </g>
    <g id="layer1">
      <path id="path3496" d="M54.37,74.58c-2.77,1.62-3.78,1.67-5.43,1.53-2.29-.2-5.54-2.77-6.67-7.91-1.92-8.58.58-19.84,6.33-30.28C56.29,24,68.49,15.19,78.89,15H60c-10.59-.21-24,8.67-31.85,23-5.76,10.47-7.71,21.51-6.05,30.15a15.53,15.53,0,0,0,2.79,6.21,17.6,17.6,0,0,0,6.61,5.52A20,20,0,0,0,41.17,81c5.34-.8,13.25-6.38,13.25-6.38" transform="translate(-0.58)" style="fill: #fff"/>
      <path id="path3498" d="M96,37.54a31.52,31.52,0,0,0-.55-7,15.65,15.65,0,0,0-2.78-6.21,19.81,19.81,0,0,0-6.57-5.53,18,18,0,0,0-9.62-1.1c-4.75.38-13.23,6.38-13.23,6.38C66,22.47,67,22.42,68.67,22.56c2.3.19,5.53,2.77,6.67,7.91a31.87,31.87,0,0,1,.35,10.67Z" transform="translate(-0.58)" style="fill: #fff"/>
      <path id="path3500" d="M62.5,55.93l9.07-4.31-1.87-.91,3.67-4.39-5.18,1.11.37-2.3-5.19,4.1a.35.35,0,0,1-.14.06.14.14,0,0,1-.14-.14s0,0,0,0a.11.11,0,0,1,0-.09L67,42.22,64.4,43.29,63.9,39,60,43.31l-1.73-1.08-1.59,6.84h0a.29.29,0,0,1-.25.21.19.19,0,0,1-.17-.14l-2-4L52.8,47.45l-4.28-1.06.18,4.36-2.6.94,5.55,4.18a.26.26,0,0,1,.11.29.4.4,0,0,1-.2.29l-2.3,2.06L56,57.72,53.73,63h1.18l2-5.25,6.05.69-.67-2.09a.19.19,0,0,1,0-.18.33.33,0,0,1,.21-.26" transform="translate(-0.58)" style="fill: #ee3625"/>
      <path id="path3502" d="M92.05,55.38a43.8,43.8,0,0,1-2.66,5.36Q88.25,62.81,87,64.68c-8.09,11.91-20.35,19-29.71,19H38.7c10.43-.22,22.61-9,30.29-23,.25-.45.49-.86.72-1.31h.1Z" transform="translate(-0.58)" style="fill: #fff"/>
    </g>
  </g>
  <g>
    <polyline points="116.43 122.9 17.75 122.9 0 221.94 98.68 221.94 116.43 122.9" style="fill: #08213a"/>
    <g style="isolation: isolate">
      <g style="isolation: isolate">
        <path d="M173.89,162.6a8.75,8.75,0,0,0-3.34-2.88,11,11,0,0,0-4.92-1,13.86,13.86,0,0,0-5.51,1.13,15.33,15.33,0,0,0-4.69,3.18,18.45,18.45,0,0,0-3.47,4.85,19.72,19.72,0,0,0-1.87,6.09,17.28,17.28,0,0,0,.16,6.13,13.07,13.07,0,0,0,2.1,4.81,10.27,10.27,0,0,0,3.74,3.18,11,11,0,0,0,5,1.14,12.54,12.54,0,0,0,5.77-1.34,13.62,13.62,0,0,0,4.52-3.75l7.61,6.49a21.85,21.85,0,0,1-8.33,6.23,24.53,24.53,0,0,1-9.57,2,26.3,26.3,0,0,1-9.81-1.74,18.8,18.8,0,0,1-7.24-5,19,19,0,0,1-4.13-7.86,25.55,25.55,0,0,1-.46-10.31,29.55,29.55,0,0,1,3.31-10.3,27.85,27.85,0,0,1,6.29-7.86,27.06,27.06,0,0,1,8.63-5A30.21,30.21,0,0,1,168,149.08a23.42,23.42,0,0,1,4,.37,20.5,20.5,0,0,1,4,1.17,16.18,16.18,0,0,1,3.7,2.14,12.1,12.1,0,0,1,2.92,3.28Z" transform="translate(-0.58)" style="fill: #08213a"/>
        <path d="M195.86,174a29.75,29.75,0,0,1,3.31-10.3,27.71,27.71,0,0,1,6.3-7.86,26.9,26.9,0,0,1,8.62-5,30.3,30.3,0,0,1,10.29-1.74,26.06,26.06,0,0,1,9.78,1.74,18.5,18.5,0,0,1,11.34,12.85A25.87,25.87,0,0,1,246,174a30.35,30.35,0,0,1-3.28,10.31,27,27,0,0,1-6.3,7.86,27.31,27.31,0,0,1-8.62,5,30,30,0,0,1-10.26,1.74,26.21,26.21,0,0,1-9.8-1.74,18.77,18.77,0,0,1-7.25-5,19.12,19.12,0,0,1-4.13-7.86A25.91,25.91,0,0,1,195.86,174Zm10.62,0a16.78,16.78,0,0,0,.2,6.13,12.23,12.23,0,0,0,2.26,4.81,10.89,10.89,0,0,0,4.1,3.18,13.72,13.72,0,0,0,5.77,1.14,16.11,16.11,0,0,0,6.1-1.14,15.81,15.81,0,0,0,5-3.18,17.21,17.21,0,0,0,3.58-4.81,19.32,19.32,0,0,0,1.87-6.13,17.11,17.11,0,0,0-.17-6.09,11.62,11.62,0,0,0-2.26-4.85,11.15,11.15,0,0,0-4.13-3.18,13.91,13.91,0,0,0-5.77-1.13,16.3,16.3,0,0,0-6.1,1.13,15.81,15.81,0,0,0-5,3.18,17.11,17.11,0,0,0-3.58,4.85A19.72,19.72,0,0,0,206.48,174Z" transform="translate(-0.58)" style="fill: #08213a"/>
        <path d="M267.66,150.29h13.9l15.22,32.92h.13l4.52-32.92h10.23l-6.49,47.37H291.79l-15.67-33.72H276l-4.59,33.72H261.17Z" transform="translate(-0.58)" style="fill: #08213a"/>
        <path d="M354,161.86a6.14,6.14,0,0,0-3.08-2.37,11,11,0,0,0-3.94-.77,11.17,11.17,0,0,0-2.36.27,8.73,8.73,0,0,0-2.33.83,6.19,6.19,0,0,0-1.87,1.51,4.47,4.47,0,0,0-1,2.27,3.6,3.6,0,0,0,.56,2.65,5.69,5.69,0,0,0,2.16,1.73,18.46,18.46,0,0,0,3.28,1.24c1.25.36,2.5.76,3.77,1.21a28.82,28.82,0,0,1,3.71,1.6,11.14,11.14,0,0,1,3.11,2.38,8.88,8.88,0,0,1,1.93,3.61,12.5,12.5,0,0,1,.17,5.25,16.94,16.94,0,0,1-2.39,6.9,17.31,17.31,0,0,1-4.6,4.88,19.42,19.42,0,0,1-6.09,2.88,26.25,26.25,0,0,1-7,.93,22.67,22.67,0,0,1-8.19-1.4,17.77,17.77,0,0,1-6.63-4.55l8.46-8.16a9.15,9.15,0,0,0,3.51,3.31,9.94,9.94,0,0,0,4.75,1.17,11.45,11.45,0,0,0,2.56-.3,9.31,9.31,0,0,0,2.43-.91,6.22,6.22,0,0,0,1.87-1.53,4.6,4.6,0,0,0,1-2.21,3.43,3.43,0,0,0-1.15-3.38,12.82,12.82,0,0,0-3.77-2.11q-2.3-.87-5-1.74a19.93,19.93,0,0,1-4.92-2.34,10.41,10.41,0,0,1-3.51-3.88,10.57,10.57,0,0,1-.75-6.36,16.11,16.11,0,0,1,2.39-6.69,17.69,17.69,0,0,1,4.62-4.82,20.56,20.56,0,0,1,6.1-2.91,24.37,24.37,0,0,1,6.75-1,24,24,0,0,1,7.45,1.14A14.41,14.41,0,0,1,362,154Z" transform="translate(-0.58)" style="fill: #08213a"/>
        <path d="M382.09,150.29h31.54l-1.31,9.63H391l-1.25,8.83h20.13l-1.31,9.64H388.45L387.14,188h22.49l-1.31,9.64H375.6Z" transform="translate(-0.58)" style="fill: #08213a"/>
      </g>
      <g style="isolation: isolate">
        <path d="M434.48,150.29h18a29.77,29.77,0,0,1,6.63.7,13.6,13.6,0,0,1,5.24,2.34,9.65,9.65,0,0,1,3.22,4.42,14.19,14.19,0,0,1,.46,6.92,16.41,16.41,0,0,1-3.74,8.53,13.43,13.43,0,0,1-8.07,4.45l9.05,20H453l-7.15-18.94h-5.05l-2.56,18.94H428Zm7.54,19.6h6c.92,0,1.89,0,2.92-.1a9.89,9.89,0,0,0,2.85-.6,6.1,6.1,0,0,0,2.3-1.57,5.44,5.44,0,0,0,1.24-3,4.49,4.49,0,0,0-.33-2.88,4,4,0,0,0-1.64-1.64,7.06,7.06,0,0,0-2.45-.77,20.36,20.36,0,0,0-2.79-.2h-6.69Z" transform="translate(-0.58)" style="fill: #08213a"/>
      </g>
      <g style="isolation: isolate">
        <path d="M482.68,150.29h11.67l7.21,31h.14l15.93-31h11l-25.64,47.37h-8.2Z" transform="translate(-0.58)" style="fill: #08213a"/>
      </g>
      <g style="isolation: isolate">
        <path d="M556.58,150.29H565l13.71,47.37H567.21l-2.63-10h-18l-5.25,10H530Zm2,13.78-7.68,14.72h11.35Z" transform="translate(-0.58)" style="fill: #08213a"/>
      </g>
      <g style="isolation: isolate">
        <path d="M603.08,159.52H589.83l1.25-9.23H627.8l-1.25,9.23H613.31l-5.25,38.14H597.83Z" transform="translate(-0.58)" style="fill: #08213a"/>
        <path d="M644.78,150.29h31.54L675,159.92H653.7l-1.25,8.83h20.13l-1.31,9.64H651.14L649.83,188h22.49L671,197.66H638.29Z" transform="translate(-0.58)" style="fill: #08213a"/>
        <path d="M732.25,179.39a25.81,25.81,0,0,1-2.32,7.77,20.8,20.8,0,0,1-4.56,6.15,20.38,20.38,0,0,1-6.69,4.08,24.19,24.19,0,0,1-8.65,1.47,21.29,21.29,0,0,1-8.33-1.47,14,14,0,0,1-5.58-4.08,14.41,14.41,0,0,1-2.85-6.15,22.29,22.29,0,0,1-.16-7.77l4-29.1h10.23L703.4,179a11.06,11.06,0,0,0,.1,4.08,8.12,8.12,0,0,0,1.51,3.25,7.52,7.52,0,0,0,2.69,2.14,8.35,8.35,0,0,0,3.64.77,9.71,9.71,0,0,0,3.83-.77,10.79,10.79,0,0,0,3.25-2.14,11.69,11.69,0,0,0,2.39-3.25,13.06,13.06,0,0,0,1.28-4.08l3.94-28.7h10.22Z" transform="translate(-0.58)" style="fill: #08213a"/>
        <path d="M757.11,150.29h18a29.68,29.68,0,0,1,6.62.7,13.6,13.6,0,0,1,5.24,2.34,9.65,9.65,0,0,1,3.22,4.42,14.07,14.07,0,0,1,.46,6.92,16.41,16.41,0,0,1-3.74,8.53,13.43,13.43,0,0,1-8.07,4.45l9.05,20H775.6l-7.15-18.94H763.4l-2.55,18.94H750.62Zm7.54,19.6h6c.92,0,1.89,0,2.92-.1a9.89,9.89,0,0,0,2.85-.6,6.1,6.1,0,0,0,2.3-1.57,5.44,5.44,0,0,0,1.24-3,4.56,4.56,0,0,0-.32-2.88,4.17,4.17,0,0,0-1.64-1.64,7.18,7.18,0,0,0-2.46-.77,20.36,20.36,0,0,0-2.79-.2h-6.69Z" transform="translate(-0.58)" style="fill: #08213a"/>
      </g>
    </g>
    <g id="layer1-2">
      <path id="path3496-2" d="M54.37,197.48c-2.77,1.63-3.78,1.67-5.43,1.53-2.29-.19-5.54-2.77-6.67-7.91-1.92-8.57.58-19.85,6.33-30.28,7.69-14,19.86-22.73,30.29-23H60c-10.59-.21-24,8.67-31.85,23-5.76,10.46-7.71,21.52-6.05,30.16a15.53,15.53,0,0,0,2.79,6.21,17.56,17.56,0,0,0,6.61,5.54,19.88,19.88,0,0,0,9.63,1.15c5.34-.81,13.25-6.39,13.25-6.39" transform="translate(-0.58)" style="fill: #fff"/>
      <path id="path3498-2" d="M96,160.45a32.13,32.13,0,0,0-.55-7,15.65,15.65,0,0,0-2.78-6.21,20.06,20.06,0,0,0-6.57-5.54,18.17,18.17,0,0,0-9.62-1.1C71.73,141,63.25,147,63.25,147c2.75-1.62,3.76-1.66,5.42-1.52,2.3.19,5.53,2.76,6.67,7.91A31.76,31.76,0,0,1,75.69,164Z" transform="translate(-0.58)" style="fill: #fff"/>
      <path id="path3500-2" d="M62.5,178.81l9.07-4.29-1.87-.92,3.67-4.38-5.18,1.1.37-2.3-5.19,4.09a.16.16,0,0,1-.14.07.13.13,0,0,1-.14-.13s0,0,0,0a.14.14,0,0,1,0-.1l3.85-6.8-2.58,1.08-.5-4.24L60,166.21l-1.73-1.07L56.7,172h0a.27.27,0,0,1-.25.21.18.18,0,0,1-.17-.14l-2-4-1.47,2.3-4.29-1.06.18,4.37-2.6.93,5.57,4.18a.24.24,0,0,1,.11.28.35.35,0,0,1-.2.29l-2.3,2.08,6.72-.8-2.25,5.3h1.18l2-5.25,6,.7-.67-2.11a.19.19,0,0,1,0-.18.38.38,0,0,1,.25-.27" transform="translate(-0.58)" style="fill: #ee3625"/>
      <path id="path3502-2" d="M92.05,178.29a45.28,45.28,0,0,1-2.66,5.36q-1.14,2.06-2.41,3.93c-8.09,11.91-20.35,18.93-29.71,19H38.7c10.43-.21,22.61-9,30.29-23,.25-.45.49-.86.72-1.31h.1Z" transform="translate(-0.58)" style="fill: #fff"/>
    </g>
  </g>
</svg>
