<?xml version="1.0" encoding="UTF-8"?>
<!DOCTYPE svg PUBLIC "-//W3C//DTD SVG 1.1//EN" "http://www.w3.org/Graphics/SVG/1.1/DTD/svg11.dtd">
<!-- Creator: CorelDRAW -->
<svg xmlns="http://www.w3.org/2000/svg" xml:space="preserve" width="1871px" height="600px" shape-rendering="geometricPrecision" text-rendering="geometricPrecision" image-rendering="optimizeQuality" fill-rule="evenodd" clip-rule="evenodd"
viewBox="0 0 1773.14 568.478"
 xmlns:xlink="http://www.w3.org/1999/xlink">
 <g id="Ebene_x0020_1">
  <metadata id="CorelCorpID_0Corel-Layer"/>
  <path fill="#4A4B9A" d="M400.209 424.049c-31.4621,26.1265 -71.8767,41.8424 -115.97,41.8424 -100.326,0 -181.654,-81.3271 -181.654,-181.652 0,-100.326 81.3282,-181.654 181.654,-181.654 100.327,0 181.657,81.3282 181.657,181.654 0,15.0434 -1.86322,29.6425 -5.3099,43.6184l97.0363 34.1344c7.01869,-24.7198 10.8559,-50.7814 10.8559,-77.7528 0,-156.982 -127.256,-284.239 -284.239,-284.239 -156.982,0 -284.239,127.257 -284.239,284.239 0,156.983 127.257,284.239 284.239,284.239 72.4172,0 138.471,-27.1247 188.664,-71.711l-72.6947 -72.7182z"/>
  <polygon fill="#64A635" points="284.239,283.91 568.372,568.155 587.052,390.42 "/>
  <path fill="#4A4B9A" d="M743.435 196.058l8.4175 0c11.3494,0 20.3421,-4.09013 20.3421,-16.976 0,-12.5994 -8.9927,-16.6078 -20.3432,-16.6078l-8.41638 0 0 33.5838zm-32.9203 -56.9485l39.2888 0c37.5621,0 55.2878,12.7426 55.2878,40.4638 0,24.9347 -18.207,39.7476 -48.9641,39.7476l-12.6923 0 0 43.1327 -32.9203 0 0 -123.344z"/>
  <path fill="#4A4B9A" d="M871.852 164.553l-0.307739 0 -15.9409 48.2278 30.8948 0 -14.6461 -48.2278zm-20.1564 -25.4439l40.3373 0 47.4052 123.344 -36.0032 0 -9.16279 -26.3178 -46.2638 0 -9.66077 26.3178 -33.4417 0 46.7898 -123.344z"/>
  <path fill="#4A4B9A" d="M991.315 190.367l8.65027 0c10.584,0 24.0339,-0.37712 24.0339,-14.2791 0,-11.5352 -11.524,-13.6144 -24.0339,-13.6144l-8.65027 0 0 27.8935zm-32.8878 -51.2581l58.683 0c21.8987,0 39.7968,9.94389 39.7968,31.104 0,16.4445 -7.84791,27.4044 -23.7216,31.094l0 0.391668c10.5605,2.80882 11.3024,12.1686 17.4449,27.2075l12.041 33.5469 -34.243 0 -7.10933 -22.2702c-6.68745,-21.1904 -10.9522,-26.5316 -23.1106,-26.5316l-6.89336 0 0 48.8018 -32.8878 0 0 -123.344z"/>
  <polygon fill="#4A4B9A" points="1106.66,163.518 1076.28,163.518 1076.28,139.109 1169.87,139.109 1169.87,163.518 1139.5,163.518 1139.5,262.453 1106.66,262.453 "/>
  <polygon fill="#4A4B9A" points="1197.14,139.109 1229.99,139.109 1229.99,262.453 1197.14,262.453 "/>
  <path fill="#4A4B9A" d="M769.558 405.191c20.0109,0 27.9259,-19.1 27.9259,-39.4052 0,-21.3582 -7.91505,-39.4007 -27.927,-39.4007 -19.9907,0 -27.9181,18.0425 -27.9181,39.4007 0,20.3052 7.92736,39.4052 27.9192,39.4052zm1.76474 24.3416l-1.76474 0c-40.3116,0 -61.8231,-24.5542 -61.8231,-63.7468 0.00111905,-39.5629 21.2239,-63.7579 61.822,-63.7579 40.6585,0 61.8186,24.195 61.8186,63.7579 0,27.7379 -10.7261,48.2289 -31.4129,57.6244l29.139 27.3541 -37.1324 0 -20.6465 -21.2318z"/>
  <path fill="#4A4B9A" d="M963.839 380.659c0,33.7103 -21.8316,48.8734 -53.9897,48.8734 -32.213,0 -54.0367,-15.1631 -54.0367,-48.8734l0 -76.5644 32.7983 0 0 71.0665c0,16.2117 4.42473,30.0297 21.2385,30.0297 16.7981,0 21.2474,-13.818 21.2474,-30.0297l0 -71.0665 32.7423 0 0 76.5644z"/>
  <path fill="#4A4B9A" d="M1032.98 283.786l33.0109 0 -22.8186 13.7766 -22.1863 0 11.994 -13.7766zm-41.0099 20.3085l86.938 0 0 23.3154 -54.0491 0 0 25.483 51.0164 0 0 23.3244 -51.0164 0 0 27.9394 55.9996 0 0 23.3076 -88.8885 0 0 -123.37z"/>
  <path fill="#4A4B9A" d="M1139.4 404.157l9.72344 0c11.9503,0 24.5587,-1.78041 24.5587,-14.3418 0.00111905,-13.3894 -12.9564,-14.654 -24.2745,-14.654l-10.0077 0 0 28.9957zm0 -51.2637l9.21091 0c10.7183,0 21.8775,-2.64432 21.8775,-13.0761 0.00111905,-11.3349 -10.5795,-12.4069 -21.5742,-12.4069l-9.51417 0 0 25.483zm-32.8688 -48.7985l56.7415 0c22.8779,0 40.0184,10.1308 40.0184,31.3032 0,15.5839 -7.89155,24.1961 -21.6693,28.8066l0 0.346906c16.3796,3.36275 24.8899,12.1831 24.8899,27.2299 0.00111905,29.4814 -25.9598,35.6832 -48.0599,35.6832l-51.9206 0 0 -123.37z"/>
  <path fill="#4A4B9A" d="M1271.36 283.786l33.0109 0 -22.738 13.7766 -22.3295 0 12.0567 -13.7766zm-40.9853 20.3085l86.957 0 0 23.3154 -54.0882 0 0 25.483 51.0522 0 0 23.3244 -51.0522 0 0 27.9394 55.9951 0 0 23.3076 -88.8639 0 0 -123.37z"/>
  <path fill="#4A4B9A" d="M1449.77 424.641c-9.33177,2.27839 -19.7669,4.89137 -36.4979,4.89137 -32.8688,0 -70.8695,-16.5765 -70.8695,-63.2376 0,-42.8742 30.0219,-64.2671 70.6849,-64.2671 12.4629,0 24.6617,2.77525 36.5359,6.32264l-2.58501 26.686c-10.6399,-5.8213 -20.9319,-8.65139 -32.1671,-8.65139 -23.3781,0 -38.5737,16.9559 -38.5737,39.9098 0.00111905,24.2677 17.1013,38.896 41.1318,38.896 10.8291,0 21.7566,-2.81441 30.7963,-6.37524l1.54429 25.8255z"/>
  <path fill="#4A4B9A" d="M1529.77 405.191c20.0389,0 28.0334,-19.1 28.0334,-39.4052 0.00111905,-21.3582 -7.9945,-39.4007 -28.0334,-39.4007 -19.8878,0 -27.8633,18.0425 -27.8633,39.4007 0,20.3052 7.97436,39.4052 27.8633,39.4052zm0 -103.163c40.7212,0 61.9283,24.195 61.9283,63.7579 0.00111905,39.1925 -21.6178,63.7468 -61.9283,63.7468 -40.2277,0 -61.7347,-24.5542 -61.7347,-63.7468 0,-39.5629 21.1355,-63.7579 61.7347,-63.7579z"/>
  <polygon fill="#4A4B9A" points="1619.4,304.094 1652.23,304.094 1652.23,427.464 1619.4,427.464 "/>
  <path fill="#4A4B9A" d="M1684.98 397.058c8.48353,4.59147 20.2985,8.13215 33.9341,8.13215 10.3512,0 20.2761,-2.11948 20.2761,-12.0141 0,-22.9965 -58.2578,-8.48912 -58.2578,-53.3597 0,-29.6862 28.9767,-37.7892 53.6854,-37.7892 11.8093,0 23.4743,1.73789 31.8001,4.58028l-2.12732 25.4293c-8.47234,-3.8708 -18.0302,-5.65233 -27.3586,-5.65233 -8.31791,0 -22.1438,0.709479 -22.1438,11.5038 0.00111905,19.9393 58.3563,6.53862 58.3563,51.0511 0.00111905,31.959 -26.8841,40.5925 -54.2303,40.5925 -11.5273,0 -25.8389,-1.74012 -36.7463,-5.26961l2.81218 -27.2041z"/>
 </g>
</svg>
